%TF.GenerationSoftware,KiCad,Pcbnew,7.0.2*%
%TF.CreationDate,2024-08-26T22:34:50+03:00*%
%TF.ProjectId,7seg,37736567-2e6b-4696-9361-645f70636258,rev?*%
%TF.SameCoordinates,Original*%
%TF.FileFunction,Drillmap*%
%TF.FilePolarity,Positive*%
%FSLAX45Y45*%
G04 Gerber Fmt 4.5, Leading zero omitted, Abs format (unit mm)*
G04 Created by KiCad (PCBNEW 7.0.2) date 2024-08-26 22:34:50*
%MOMM*%
%LPD*%
G01*
G04 APERTURE LIST*
%ADD10C,0.100000*%
%ADD11C,0.200000*%
%ADD12C,0.350000*%
G04 APERTURE END LIST*
D10*
X11172500Y-9415000D02*
G75*
G03*
X11352500Y-9235000I0J180000D01*
G01*
X11302794Y-14460002D02*
G75*
G03*
X11387647Y-14424853I6J119982D01*
G01*
X8612351Y-14424855D02*
G75*
G03*
X8697206Y-14460000I84859J84875D01*
G01*
X8827500Y-13290000D02*
X11172500Y-13290000D01*
X12064779Y-9872721D02*
X12487353Y-9450147D01*
X12487353Y-6674853D02*
X11387647Y-5575147D01*
X12487355Y-9450149D02*
G75*
G03*
X12522500Y-9365294I-84875J84859D01*
G01*
X8827500Y-10585000D02*
G75*
G03*
X8647500Y-10765000I0J-180000D01*
G01*
X7512645Y-10549851D02*
G75*
G03*
X7477500Y-10634706I84875J-84859D01*
G01*
X11302794Y-5540000D02*
X8697206Y-5540000D01*
X11352500Y-10765000D02*
G75*
G03*
X11172500Y-10585000I-180000J0D01*
G01*
X7477498Y-13240294D02*
G75*
G03*
X7512647Y-13325147I119982J-6D01*
G01*
X11387647Y-14424853D02*
X12487353Y-13325147D01*
X7477500Y-10634706D02*
X7477500Y-13240294D01*
X11172500Y-13290000D02*
G75*
G03*
X11352500Y-13110000I0J180000D01*
G01*
X11352500Y-9235000D02*
X11352500Y-6890000D01*
X7935221Y-10127279D02*
G75*
G03*
X7935221Y-9872721I-127281J127279D01*
G01*
X7512647Y-9450147D02*
X7935221Y-9872721D01*
X8647500Y-9235000D02*
G75*
G03*
X8827500Y-9415000I180000J0D01*
G01*
X12064779Y-9872721D02*
G75*
G03*
X12064779Y-10127279I127281J-127279D01*
G01*
X11172500Y-6710000D02*
X8827500Y-6710000D01*
X11172500Y-10585000D02*
X8827500Y-10585000D01*
X7512645Y-6674851D02*
G75*
G03*
X7477500Y-6759706I84875J-84859D01*
G01*
X12522500Y-13240294D02*
X12522500Y-10634706D01*
X8827500Y-6710000D02*
G75*
G03*
X8647500Y-6890000I0J-180000D01*
G01*
X7477500Y-6759706D02*
X7477500Y-9365294D01*
X12522500Y-9365294D02*
X12522500Y-6759706D01*
X8647500Y-10765000D02*
X8647500Y-13110000D01*
X12522502Y-6759706D02*
G75*
G03*
X12487353Y-6674853I-119982J6D01*
G01*
X12522502Y-10634706D02*
G75*
G03*
X12487353Y-10549853I-119982J6D01*
G01*
X8827500Y-9415000D02*
X11172500Y-9415000D01*
X8647500Y-13110000D02*
G75*
G03*
X8827500Y-13290000I180000J0D01*
G01*
X8697206Y-14460000D02*
X11302794Y-14460000D01*
X8612353Y-5575147D02*
X7512647Y-6674853D01*
X8697206Y-5539998D02*
G75*
G03*
X8612353Y-5575147I-6J-119982D01*
G01*
X11352500Y-6890000D02*
G75*
G03*
X11172500Y-6710000I-180000J0D01*
G01*
X8647500Y-6890000D02*
X8647500Y-9235000D01*
X11387649Y-5575145D02*
G75*
G03*
X11302794Y-5540000I-84859J-84875D01*
G01*
X12487353Y-10549853D02*
X12064779Y-10127279D01*
X12487355Y-13325149D02*
G75*
G03*
X12522500Y-13240294I-84875J84859D01*
G01*
X11352500Y-13110000D02*
X11352500Y-10765000D01*
X7477498Y-9365294D02*
G75*
G03*
X7512647Y-9450147I119982J-6D01*
G01*
X7512647Y-13325147D02*
X8612353Y-14424853D01*
X7935221Y-10127279D02*
X7512647Y-10549853D01*
D11*
D10*
X9569000Y-6070000D02*
X9669000Y-6170000D01*
X9669000Y-6070000D02*
X9569000Y-6170000D01*
X9823000Y-6070000D02*
X9923000Y-6170000D01*
X9923000Y-6070000D02*
X9823000Y-6170000D01*
X10077000Y-6070000D02*
X10177000Y-6170000D01*
X10177000Y-6070000D02*
X10077000Y-6170000D01*
X10331000Y-6070000D02*
X10431000Y-6170000D01*
X10431000Y-6070000D02*
X10331000Y-6170000D01*
D12*
X7982940Y-10000000D02*
G75*
G03*
X7982940Y-10000000I-175000J0D01*
G01*
X9002500Y-6890000D02*
G75*
G03*
X9002500Y-6890000I-175000J0D01*
G01*
X9002500Y-9235000D02*
G75*
G03*
X9002500Y-9235000I-175000J0D01*
G01*
X9002500Y-10765000D02*
G75*
G03*
X9002500Y-10765000I-175000J0D01*
G01*
X9002500Y-13110000D02*
G75*
G03*
X9002500Y-13110000I-175000J0D01*
G01*
X11347500Y-6890000D02*
G75*
G03*
X11347500Y-6890000I-175000J0D01*
G01*
X11347500Y-9235000D02*
G75*
G03*
X11347500Y-9235000I-175000J0D01*
G01*
X11347500Y-10765000D02*
G75*
G03*
X11347500Y-10765000I-175000J0D01*
G01*
X11347500Y-13110000D02*
G75*
G03*
X11347500Y-13110000I-175000J0D01*
G01*
X12367060Y-10000000D02*
G75*
G03*
X12367060Y-10000000I-175000J0D01*
G01*
D11*
X7720117Y-14777526D02*
X7720117Y-14577526D01*
X7720117Y-14577526D02*
X7767736Y-14577526D01*
X7767736Y-14577526D02*
X7796308Y-14587049D01*
X7796308Y-14587049D02*
X7815355Y-14606097D01*
X7815355Y-14606097D02*
X7824879Y-14625145D01*
X7824879Y-14625145D02*
X7834403Y-14663240D01*
X7834403Y-14663240D02*
X7834403Y-14691811D01*
X7834403Y-14691811D02*
X7824879Y-14729907D01*
X7824879Y-14729907D02*
X7815355Y-14748954D01*
X7815355Y-14748954D02*
X7796308Y-14768002D01*
X7796308Y-14768002D02*
X7767736Y-14777526D01*
X7767736Y-14777526D02*
X7720117Y-14777526D01*
X7920117Y-14777526D02*
X7920117Y-14644192D01*
X7920117Y-14682288D02*
X7929641Y-14663240D01*
X7929641Y-14663240D02*
X7939165Y-14653716D01*
X7939165Y-14653716D02*
X7958212Y-14644192D01*
X7958212Y-14644192D02*
X7977260Y-14644192D01*
X8043927Y-14777526D02*
X8043927Y-14644192D01*
X8043927Y-14577526D02*
X8034403Y-14587049D01*
X8034403Y-14587049D02*
X8043927Y-14596573D01*
X8043927Y-14596573D02*
X8053450Y-14587049D01*
X8053450Y-14587049D02*
X8043927Y-14577526D01*
X8043927Y-14577526D02*
X8043927Y-14596573D01*
X8167736Y-14777526D02*
X8148688Y-14768002D01*
X8148688Y-14768002D02*
X8139165Y-14748954D01*
X8139165Y-14748954D02*
X8139165Y-14577526D01*
X8272498Y-14777526D02*
X8253450Y-14768002D01*
X8253450Y-14768002D02*
X8243927Y-14748954D01*
X8243927Y-14748954D02*
X8243927Y-14577526D01*
X8501070Y-14777526D02*
X8501070Y-14577526D01*
X8501070Y-14577526D02*
X8567736Y-14720383D01*
X8567736Y-14720383D02*
X8634403Y-14577526D01*
X8634403Y-14577526D02*
X8634403Y-14777526D01*
X8815355Y-14777526D02*
X8815355Y-14672764D01*
X8815355Y-14672764D02*
X8805831Y-14653716D01*
X8805831Y-14653716D02*
X8786784Y-14644192D01*
X8786784Y-14644192D02*
X8748689Y-14644192D01*
X8748689Y-14644192D02*
X8729641Y-14653716D01*
X8815355Y-14768002D02*
X8796308Y-14777526D01*
X8796308Y-14777526D02*
X8748689Y-14777526D01*
X8748689Y-14777526D02*
X8729641Y-14768002D01*
X8729641Y-14768002D02*
X8720117Y-14748954D01*
X8720117Y-14748954D02*
X8720117Y-14729907D01*
X8720117Y-14729907D02*
X8729641Y-14710859D01*
X8729641Y-14710859D02*
X8748689Y-14701335D01*
X8748689Y-14701335D02*
X8796308Y-14701335D01*
X8796308Y-14701335D02*
X8815355Y-14691811D01*
X8910593Y-14644192D02*
X8910593Y-14844192D01*
X8910593Y-14653716D02*
X8929641Y-14644192D01*
X8929641Y-14644192D02*
X8967736Y-14644192D01*
X8967736Y-14644192D02*
X8986784Y-14653716D01*
X8986784Y-14653716D02*
X8996308Y-14663240D01*
X8996308Y-14663240D02*
X9005831Y-14682288D01*
X9005831Y-14682288D02*
X9005831Y-14739430D01*
X9005831Y-14739430D02*
X8996308Y-14758478D01*
X8996308Y-14758478D02*
X8986784Y-14768002D01*
X8986784Y-14768002D02*
X8967736Y-14777526D01*
X8967736Y-14777526D02*
X8929641Y-14777526D01*
X8929641Y-14777526D02*
X8910593Y-14768002D01*
X9091546Y-14758478D02*
X9101070Y-14768002D01*
X9101070Y-14768002D02*
X9091546Y-14777526D01*
X9091546Y-14777526D02*
X9082022Y-14768002D01*
X9082022Y-14768002D02*
X9091546Y-14758478D01*
X9091546Y-14758478D02*
X9091546Y-14777526D01*
X9091546Y-14653716D02*
X9101070Y-14663240D01*
X9101070Y-14663240D02*
X9091546Y-14672764D01*
X9091546Y-14672764D02*
X9082022Y-14663240D01*
X9082022Y-14663240D02*
X9091546Y-14653716D01*
X9091546Y-14653716D02*
X9091546Y-14672764D01*
D10*
X7372498Y-15055002D02*
X7472498Y-15155002D01*
X7472498Y-15055002D02*
X7372498Y-15155002D01*
D11*
X7824879Y-15197526D02*
X7710593Y-15197526D01*
X7767736Y-15197526D02*
X7767736Y-14997526D01*
X7767736Y-14997526D02*
X7748688Y-15026097D01*
X7748688Y-15026097D02*
X7729641Y-15045145D01*
X7729641Y-15045145D02*
X7710593Y-15054668D01*
X7910593Y-15178478D02*
X7920117Y-15188002D01*
X7920117Y-15188002D02*
X7910593Y-15197526D01*
X7910593Y-15197526D02*
X7901069Y-15188002D01*
X7901069Y-15188002D02*
X7910593Y-15178478D01*
X7910593Y-15178478D02*
X7910593Y-15197526D01*
X8043927Y-14997526D02*
X8062974Y-14997526D01*
X8062974Y-14997526D02*
X8082022Y-15007049D01*
X8082022Y-15007049D02*
X8091546Y-15016573D01*
X8091546Y-15016573D02*
X8101069Y-15035621D01*
X8101069Y-15035621D02*
X8110593Y-15073716D01*
X8110593Y-15073716D02*
X8110593Y-15121335D01*
X8110593Y-15121335D02*
X8101069Y-15159430D01*
X8101069Y-15159430D02*
X8091546Y-15178478D01*
X8091546Y-15178478D02*
X8082022Y-15188002D01*
X8082022Y-15188002D02*
X8062974Y-15197526D01*
X8062974Y-15197526D02*
X8043927Y-15197526D01*
X8043927Y-15197526D02*
X8024879Y-15188002D01*
X8024879Y-15188002D02*
X8015355Y-15178478D01*
X8015355Y-15178478D02*
X8005831Y-15159430D01*
X8005831Y-15159430D02*
X7996308Y-15121335D01*
X7996308Y-15121335D02*
X7996308Y-15073716D01*
X7996308Y-15073716D02*
X8005831Y-15035621D01*
X8005831Y-15035621D02*
X8015355Y-15016573D01*
X8015355Y-15016573D02*
X8024879Y-15007049D01*
X8024879Y-15007049D02*
X8043927Y-14997526D01*
X8234403Y-14997526D02*
X8253450Y-14997526D01*
X8253450Y-14997526D02*
X8272498Y-15007049D01*
X8272498Y-15007049D02*
X8282022Y-15016573D01*
X8282022Y-15016573D02*
X8291546Y-15035621D01*
X8291546Y-15035621D02*
X8301069Y-15073716D01*
X8301069Y-15073716D02*
X8301069Y-15121335D01*
X8301069Y-15121335D02*
X8291546Y-15159430D01*
X8291546Y-15159430D02*
X8282022Y-15178478D01*
X8282022Y-15178478D02*
X8272498Y-15188002D01*
X8272498Y-15188002D02*
X8253450Y-15197526D01*
X8253450Y-15197526D02*
X8234403Y-15197526D01*
X8234403Y-15197526D02*
X8215355Y-15188002D01*
X8215355Y-15188002D02*
X8205831Y-15178478D01*
X8205831Y-15178478D02*
X8196308Y-15159430D01*
X8196308Y-15159430D02*
X8186784Y-15121335D01*
X8186784Y-15121335D02*
X8186784Y-15073716D01*
X8186784Y-15073716D02*
X8196308Y-15035621D01*
X8196308Y-15035621D02*
X8205831Y-15016573D01*
X8205831Y-15016573D02*
X8215355Y-15007049D01*
X8215355Y-15007049D02*
X8234403Y-14997526D01*
X8424879Y-14997526D02*
X8443927Y-14997526D01*
X8443927Y-14997526D02*
X8462974Y-15007049D01*
X8462974Y-15007049D02*
X8472498Y-15016573D01*
X8472498Y-15016573D02*
X8482022Y-15035621D01*
X8482022Y-15035621D02*
X8491546Y-15073716D01*
X8491546Y-15073716D02*
X8491546Y-15121335D01*
X8491546Y-15121335D02*
X8482022Y-15159430D01*
X8482022Y-15159430D02*
X8472498Y-15178478D01*
X8472498Y-15178478D02*
X8462974Y-15188002D01*
X8462974Y-15188002D02*
X8443927Y-15197526D01*
X8443927Y-15197526D02*
X8424879Y-15197526D01*
X8424879Y-15197526D02*
X8405831Y-15188002D01*
X8405831Y-15188002D02*
X8396308Y-15178478D01*
X8396308Y-15178478D02*
X8386784Y-15159430D01*
X8386784Y-15159430D02*
X8377260Y-15121335D01*
X8377260Y-15121335D02*
X8377260Y-15073716D01*
X8377260Y-15073716D02*
X8386784Y-15035621D01*
X8386784Y-15035621D02*
X8396308Y-15016573D01*
X8396308Y-15016573D02*
X8405831Y-15007049D01*
X8405831Y-15007049D02*
X8424879Y-14997526D01*
X8577260Y-15197526D02*
X8577260Y-15064192D01*
X8577260Y-15083240D02*
X8586784Y-15073716D01*
X8586784Y-15073716D02*
X8605831Y-15064192D01*
X8605831Y-15064192D02*
X8634403Y-15064192D01*
X8634403Y-15064192D02*
X8653451Y-15073716D01*
X8653451Y-15073716D02*
X8662974Y-15092764D01*
X8662974Y-15092764D02*
X8662974Y-15197526D01*
X8662974Y-15092764D02*
X8672498Y-15073716D01*
X8672498Y-15073716D02*
X8691546Y-15064192D01*
X8691546Y-15064192D02*
X8720117Y-15064192D01*
X8720117Y-15064192D02*
X8739165Y-15073716D01*
X8739165Y-15073716D02*
X8748689Y-15092764D01*
X8748689Y-15092764D02*
X8748689Y-15197526D01*
X8843927Y-15197526D02*
X8843927Y-15064192D01*
X8843927Y-15083240D02*
X8853451Y-15073716D01*
X8853451Y-15073716D02*
X8872498Y-15064192D01*
X8872498Y-15064192D02*
X8901070Y-15064192D01*
X8901070Y-15064192D02*
X8920117Y-15073716D01*
X8920117Y-15073716D02*
X8929641Y-15092764D01*
X8929641Y-15092764D02*
X8929641Y-15197526D01*
X8929641Y-15092764D02*
X8939165Y-15073716D01*
X8939165Y-15073716D02*
X8958212Y-15064192D01*
X8958212Y-15064192D02*
X8986784Y-15064192D01*
X8986784Y-15064192D02*
X9005832Y-15073716D01*
X9005832Y-15073716D02*
X9015355Y-15092764D01*
X9015355Y-15092764D02*
X9015355Y-15197526D01*
X9405832Y-14988002D02*
X9234403Y-15245145D01*
X9662974Y-14997526D02*
X9682022Y-14997526D01*
X9682022Y-14997526D02*
X9701070Y-15007049D01*
X9701070Y-15007049D02*
X9710594Y-15016573D01*
X9710594Y-15016573D02*
X9720117Y-15035621D01*
X9720117Y-15035621D02*
X9729641Y-15073716D01*
X9729641Y-15073716D02*
X9729641Y-15121335D01*
X9729641Y-15121335D02*
X9720117Y-15159430D01*
X9720117Y-15159430D02*
X9710594Y-15178478D01*
X9710594Y-15178478D02*
X9701070Y-15188002D01*
X9701070Y-15188002D02*
X9682022Y-15197526D01*
X9682022Y-15197526D02*
X9662974Y-15197526D01*
X9662974Y-15197526D02*
X9643927Y-15188002D01*
X9643927Y-15188002D02*
X9634403Y-15178478D01*
X9634403Y-15178478D02*
X9624879Y-15159430D01*
X9624879Y-15159430D02*
X9615355Y-15121335D01*
X9615355Y-15121335D02*
X9615355Y-15073716D01*
X9615355Y-15073716D02*
X9624879Y-15035621D01*
X9624879Y-15035621D02*
X9634403Y-15016573D01*
X9634403Y-15016573D02*
X9643927Y-15007049D01*
X9643927Y-15007049D02*
X9662974Y-14997526D01*
X9815355Y-15178478D02*
X9824879Y-15188002D01*
X9824879Y-15188002D02*
X9815355Y-15197526D01*
X9815355Y-15197526D02*
X9805832Y-15188002D01*
X9805832Y-15188002D02*
X9815355Y-15178478D01*
X9815355Y-15178478D02*
X9815355Y-15197526D01*
X9948689Y-14997526D02*
X9967736Y-14997526D01*
X9967736Y-14997526D02*
X9986784Y-15007049D01*
X9986784Y-15007049D02*
X9996308Y-15016573D01*
X9996308Y-15016573D02*
X10005832Y-15035621D01*
X10005832Y-15035621D02*
X10015355Y-15073716D01*
X10015355Y-15073716D02*
X10015355Y-15121335D01*
X10015355Y-15121335D02*
X10005832Y-15159430D01*
X10005832Y-15159430D02*
X9996308Y-15178478D01*
X9996308Y-15178478D02*
X9986784Y-15188002D01*
X9986784Y-15188002D02*
X9967736Y-15197526D01*
X9967736Y-15197526D02*
X9948689Y-15197526D01*
X9948689Y-15197526D02*
X9929641Y-15188002D01*
X9929641Y-15188002D02*
X9920117Y-15178478D01*
X9920117Y-15178478D02*
X9910594Y-15159430D01*
X9910594Y-15159430D02*
X9901070Y-15121335D01*
X9901070Y-15121335D02*
X9901070Y-15073716D01*
X9901070Y-15073716D02*
X9910594Y-15035621D01*
X9910594Y-15035621D02*
X9920117Y-15016573D01*
X9920117Y-15016573D02*
X9929641Y-15007049D01*
X9929641Y-15007049D02*
X9948689Y-14997526D01*
X10082022Y-14997526D02*
X10205832Y-14997526D01*
X10205832Y-14997526D02*
X10139165Y-15073716D01*
X10139165Y-15073716D02*
X10167736Y-15073716D01*
X10167736Y-15073716D02*
X10186784Y-15083240D01*
X10186784Y-15083240D02*
X10196308Y-15092764D01*
X10196308Y-15092764D02*
X10205832Y-15111811D01*
X10205832Y-15111811D02*
X10205832Y-15159430D01*
X10205832Y-15159430D02*
X10196308Y-15178478D01*
X10196308Y-15178478D02*
X10186784Y-15188002D01*
X10186784Y-15188002D02*
X10167736Y-15197526D01*
X10167736Y-15197526D02*
X10110594Y-15197526D01*
X10110594Y-15197526D02*
X10091546Y-15188002D01*
X10091546Y-15188002D02*
X10082022Y-15178478D01*
X10301070Y-15197526D02*
X10339165Y-15197526D01*
X10339165Y-15197526D02*
X10358213Y-15188002D01*
X10358213Y-15188002D02*
X10367736Y-15178478D01*
X10367736Y-15178478D02*
X10386784Y-15149907D01*
X10386784Y-15149907D02*
X10396308Y-15111811D01*
X10396308Y-15111811D02*
X10396308Y-15035621D01*
X10396308Y-15035621D02*
X10386784Y-15016573D01*
X10386784Y-15016573D02*
X10377260Y-15007049D01*
X10377260Y-15007049D02*
X10358213Y-14997526D01*
X10358213Y-14997526D02*
X10320117Y-14997526D01*
X10320117Y-14997526D02*
X10301070Y-15007049D01*
X10301070Y-15007049D02*
X10291546Y-15016573D01*
X10291546Y-15016573D02*
X10282022Y-15035621D01*
X10282022Y-15035621D02*
X10282022Y-15083240D01*
X10282022Y-15083240D02*
X10291546Y-15102288D01*
X10291546Y-15102288D02*
X10301070Y-15111811D01*
X10301070Y-15111811D02*
X10320117Y-15121335D01*
X10320117Y-15121335D02*
X10358213Y-15121335D01*
X10358213Y-15121335D02*
X10377260Y-15111811D01*
X10377260Y-15111811D02*
X10386784Y-15102288D01*
X10386784Y-15102288D02*
X10396308Y-15083240D01*
X10567736Y-15064192D02*
X10567736Y-15197526D01*
X10520117Y-14988002D02*
X10472498Y-15130859D01*
X10472498Y-15130859D02*
X10596308Y-15130859D01*
X10662975Y-14997526D02*
X10662975Y-15035621D01*
X10739165Y-14997526D02*
X10739165Y-15035621D01*
X11034403Y-15273716D02*
X11024879Y-15264192D01*
X11024879Y-15264192D02*
X11005832Y-15235621D01*
X11005832Y-15235621D02*
X10996308Y-15216573D01*
X10996308Y-15216573D02*
X10986784Y-15188002D01*
X10986784Y-15188002D02*
X10977260Y-15140383D01*
X10977260Y-15140383D02*
X10977260Y-15102288D01*
X10977260Y-15102288D02*
X10986784Y-15054668D01*
X10986784Y-15054668D02*
X10996308Y-15026097D01*
X10996308Y-15026097D02*
X11005832Y-15007049D01*
X11005832Y-15007049D02*
X11024879Y-14978478D01*
X11024879Y-14978478D02*
X11034403Y-14968954D01*
X11196308Y-15064192D02*
X11196308Y-15197526D01*
X11148689Y-14988002D02*
X11101070Y-15130859D01*
X11101070Y-15130859D02*
X11224879Y-15130859D01*
X11453451Y-15197526D02*
X11453451Y-14997526D01*
X11539165Y-15197526D02*
X11539165Y-15092764D01*
X11539165Y-15092764D02*
X11529641Y-15073716D01*
X11529641Y-15073716D02*
X11510594Y-15064192D01*
X11510594Y-15064192D02*
X11482022Y-15064192D01*
X11482022Y-15064192D02*
X11462975Y-15073716D01*
X11462975Y-15073716D02*
X11453451Y-15083240D01*
X11662975Y-15197526D02*
X11643927Y-15188002D01*
X11643927Y-15188002D02*
X11634403Y-15178478D01*
X11634403Y-15178478D02*
X11624879Y-15159430D01*
X11624879Y-15159430D02*
X11624879Y-15102288D01*
X11624879Y-15102288D02*
X11634403Y-15083240D01*
X11634403Y-15083240D02*
X11643927Y-15073716D01*
X11643927Y-15073716D02*
X11662975Y-15064192D01*
X11662975Y-15064192D02*
X11691546Y-15064192D01*
X11691546Y-15064192D02*
X11710594Y-15073716D01*
X11710594Y-15073716D02*
X11720117Y-15083240D01*
X11720117Y-15083240D02*
X11729641Y-15102288D01*
X11729641Y-15102288D02*
X11729641Y-15159430D01*
X11729641Y-15159430D02*
X11720117Y-15178478D01*
X11720117Y-15178478D02*
X11710594Y-15188002D01*
X11710594Y-15188002D02*
X11691546Y-15197526D01*
X11691546Y-15197526D02*
X11662975Y-15197526D01*
X11843927Y-15197526D02*
X11824879Y-15188002D01*
X11824879Y-15188002D02*
X11815356Y-15168954D01*
X11815356Y-15168954D02*
X11815356Y-14997526D01*
X11996308Y-15188002D02*
X11977260Y-15197526D01*
X11977260Y-15197526D02*
X11939165Y-15197526D01*
X11939165Y-15197526D02*
X11920117Y-15188002D01*
X11920117Y-15188002D02*
X11910594Y-15168954D01*
X11910594Y-15168954D02*
X11910594Y-15092764D01*
X11910594Y-15092764D02*
X11920117Y-15073716D01*
X11920117Y-15073716D02*
X11939165Y-15064192D01*
X11939165Y-15064192D02*
X11977260Y-15064192D01*
X11977260Y-15064192D02*
X11996308Y-15073716D01*
X11996308Y-15073716D02*
X12005832Y-15092764D01*
X12005832Y-15092764D02*
X12005832Y-15111811D01*
X12005832Y-15111811D02*
X11910594Y-15130859D01*
X12082022Y-15188002D02*
X12101070Y-15197526D01*
X12101070Y-15197526D02*
X12139165Y-15197526D01*
X12139165Y-15197526D02*
X12158213Y-15188002D01*
X12158213Y-15188002D02*
X12167737Y-15168954D01*
X12167737Y-15168954D02*
X12167737Y-15159430D01*
X12167737Y-15159430D02*
X12158213Y-15140383D01*
X12158213Y-15140383D02*
X12139165Y-15130859D01*
X12139165Y-15130859D02*
X12110594Y-15130859D01*
X12110594Y-15130859D02*
X12091546Y-15121335D01*
X12091546Y-15121335D02*
X12082022Y-15102288D01*
X12082022Y-15102288D02*
X12082022Y-15092764D01*
X12082022Y-15092764D02*
X12091546Y-15073716D01*
X12091546Y-15073716D02*
X12110594Y-15064192D01*
X12110594Y-15064192D02*
X12139165Y-15064192D01*
X12139165Y-15064192D02*
X12158213Y-15073716D01*
X12234403Y-15273716D02*
X12243927Y-15264192D01*
X12243927Y-15264192D02*
X12262975Y-15235621D01*
X12262975Y-15235621D02*
X12272498Y-15216573D01*
X12272498Y-15216573D02*
X12282022Y-15188002D01*
X12282022Y-15188002D02*
X12291546Y-15140383D01*
X12291546Y-15140383D02*
X12291546Y-15102288D01*
X12291546Y-15102288D02*
X12282022Y-15054668D01*
X12282022Y-15054668D02*
X12272498Y-15026097D01*
X12272498Y-15026097D02*
X12262975Y-15007049D01*
X12262975Y-15007049D02*
X12243927Y-14978478D01*
X12243927Y-14978478D02*
X12234403Y-14968954D01*
X7472498Y-15369002D02*
G75*
G03*
X7472498Y-15369002I-100000J0D01*
G01*
X7701069Y-15261526D02*
X7824879Y-15261526D01*
X7824879Y-15261526D02*
X7758212Y-15337716D01*
X7758212Y-15337716D02*
X7786784Y-15337716D01*
X7786784Y-15337716D02*
X7805831Y-15347240D01*
X7805831Y-15347240D02*
X7815355Y-15356764D01*
X7815355Y-15356764D02*
X7824879Y-15375811D01*
X7824879Y-15375811D02*
X7824879Y-15423430D01*
X7824879Y-15423430D02*
X7815355Y-15442478D01*
X7815355Y-15442478D02*
X7805831Y-15452002D01*
X7805831Y-15452002D02*
X7786784Y-15461526D01*
X7786784Y-15461526D02*
X7729641Y-15461526D01*
X7729641Y-15461526D02*
X7710593Y-15452002D01*
X7710593Y-15452002D02*
X7701069Y-15442478D01*
X7910593Y-15442478D02*
X7920117Y-15452002D01*
X7920117Y-15452002D02*
X7910593Y-15461526D01*
X7910593Y-15461526D02*
X7901069Y-15452002D01*
X7901069Y-15452002D02*
X7910593Y-15442478D01*
X7910593Y-15442478D02*
X7910593Y-15461526D01*
X8101069Y-15261526D02*
X8005831Y-15261526D01*
X8005831Y-15261526D02*
X7996308Y-15356764D01*
X7996308Y-15356764D02*
X8005831Y-15347240D01*
X8005831Y-15347240D02*
X8024879Y-15337716D01*
X8024879Y-15337716D02*
X8072498Y-15337716D01*
X8072498Y-15337716D02*
X8091546Y-15347240D01*
X8091546Y-15347240D02*
X8101069Y-15356764D01*
X8101069Y-15356764D02*
X8110593Y-15375811D01*
X8110593Y-15375811D02*
X8110593Y-15423430D01*
X8110593Y-15423430D02*
X8101069Y-15442478D01*
X8101069Y-15442478D02*
X8091546Y-15452002D01*
X8091546Y-15452002D02*
X8072498Y-15461526D01*
X8072498Y-15461526D02*
X8024879Y-15461526D01*
X8024879Y-15461526D02*
X8005831Y-15452002D01*
X8005831Y-15452002D02*
X7996308Y-15442478D01*
X8234403Y-15261526D02*
X8253450Y-15261526D01*
X8253450Y-15261526D02*
X8272498Y-15271049D01*
X8272498Y-15271049D02*
X8282022Y-15280573D01*
X8282022Y-15280573D02*
X8291546Y-15299621D01*
X8291546Y-15299621D02*
X8301069Y-15337716D01*
X8301069Y-15337716D02*
X8301069Y-15385335D01*
X8301069Y-15385335D02*
X8291546Y-15423430D01*
X8291546Y-15423430D02*
X8282022Y-15442478D01*
X8282022Y-15442478D02*
X8272498Y-15452002D01*
X8272498Y-15452002D02*
X8253450Y-15461526D01*
X8253450Y-15461526D02*
X8234403Y-15461526D01*
X8234403Y-15461526D02*
X8215355Y-15452002D01*
X8215355Y-15452002D02*
X8205831Y-15442478D01*
X8205831Y-15442478D02*
X8196308Y-15423430D01*
X8196308Y-15423430D02*
X8186784Y-15385335D01*
X8186784Y-15385335D02*
X8186784Y-15337716D01*
X8186784Y-15337716D02*
X8196308Y-15299621D01*
X8196308Y-15299621D02*
X8205831Y-15280573D01*
X8205831Y-15280573D02*
X8215355Y-15271049D01*
X8215355Y-15271049D02*
X8234403Y-15261526D01*
X8424879Y-15261526D02*
X8443927Y-15261526D01*
X8443927Y-15261526D02*
X8462974Y-15271049D01*
X8462974Y-15271049D02*
X8472498Y-15280573D01*
X8472498Y-15280573D02*
X8482022Y-15299621D01*
X8482022Y-15299621D02*
X8491546Y-15337716D01*
X8491546Y-15337716D02*
X8491546Y-15385335D01*
X8491546Y-15385335D02*
X8482022Y-15423430D01*
X8482022Y-15423430D02*
X8472498Y-15442478D01*
X8472498Y-15442478D02*
X8462974Y-15452002D01*
X8462974Y-15452002D02*
X8443927Y-15461526D01*
X8443927Y-15461526D02*
X8424879Y-15461526D01*
X8424879Y-15461526D02*
X8405831Y-15452002D01*
X8405831Y-15452002D02*
X8396308Y-15442478D01*
X8396308Y-15442478D02*
X8386784Y-15423430D01*
X8386784Y-15423430D02*
X8377260Y-15385335D01*
X8377260Y-15385335D02*
X8377260Y-15337716D01*
X8377260Y-15337716D02*
X8386784Y-15299621D01*
X8386784Y-15299621D02*
X8396308Y-15280573D01*
X8396308Y-15280573D02*
X8405831Y-15271049D01*
X8405831Y-15271049D02*
X8424879Y-15261526D01*
X8577260Y-15461526D02*
X8577260Y-15328192D01*
X8577260Y-15347240D02*
X8586784Y-15337716D01*
X8586784Y-15337716D02*
X8605831Y-15328192D01*
X8605831Y-15328192D02*
X8634403Y-15328192D01*
X8634403Y-15328192D02*
X8653451Y-15337716D01*
X8653451Y-15337716D02*
X8662974Y-15356764D01*
X8662974Y-15356764D02*
X8662974Y-15461526D01*
X8662974Y-15356764D02*
X8672498Y-15337716D01*
X8672498Y-15337716D02*
X8691546Y-15328192D01*
X8691546Y-15328192D02*
X8720117Y-15328192D01*
X8720117Y-15328192D02*
X8739165Y-15337716D01*
X8739165Y-15337716D02*
X8748689Y-15356764D01*
X8748689Y-15356764D02*
X8748689Y-15461526D01*
X8843927Y-15461526D02*
X8843927Y-15328192D01*
X8843927Y-15347240D02*
X8853451Y-15337716D01*
X8853451Y-15337716D02*
X8872498Y-15328192D01*
X8872498Y-15328192D02*
X8901070Y-15328192D01*
X8901070Y-15328192D02*
X8920117Y-15337716D01*
X8920117Y-15337716D02*
X8929641Y-15356764D01*
X8929641Y-15356764D02*
X8929641Y-15461526D01*
X8929641Y-15356764D02*
X8939165Y-15337716D01*
X8939165Y-15337716D02*
X8958212Y-15328192D01*
X8958212Y-15328192D02*
X8986784Y-15328192D01*
X8986784Y-15328192D02*
X9005832Y-15337716D01*
X9005832Y-15337716D02*
X9015355Y-15356764D01*
X9015355Y-15356764D02*
X9015355Y-15461526D01*
X9405832Y-15252002D02*
X9234403Y-15509145D01*
X9662974Y-15261526D02*
X9682022Y-15261526D01*
X9682022Y-15261526D02*
X9701070Y-15271049D01*
X9701070Y-15271049D02*
X9710594Y-15280573D01*
X9710594Y-15280573D02*
X9720117Y-15299621D01*
X9720117Y-15299621D02*
X9729641Y-15337716D01*
X9729641Y-15337716D02*
X9729641Y-15385335D01*
X9729641Y-15385335D02*
X9720117Y-15423430D01*
X9720117Y-15423430D02*
X9710594Y-15442478D01*
X9710594Y-15442478D02*
X9701070Y-15452002D01*
X9701070Y-15452002D02*
X9682022Y-15461526D01*
X9682022Y-15461526D02*
X9662974Y-15461526D01*
X9662974Y-15461526D02*
X9643927Y-15452002D01*
X9643927Y-15452002D02*
X9634403Y-15442478D01*
X9634403Y-15442478D02*
X9624879Y-15423430D01*
X9624879Y-15423430D02*
X9615355Y-15385335D01*
X9615355Y-15385335D02*
X9615355Y-15337716D01*
X9615355Y-15337716D02*
X9624879Y-15299621D01*
X9624879Y-15299621D02*
X9634403Y-15280573D01*
X9634403Y-15280573D02*
X9643927Y-15271049D01*
X9643927Y-15271049D02*
X9662974Y-15261526D01*
X9815355Y-15442478D02*
X9824879Y-15452002D01*
X9824879Y-15452002D02*
X9815355Y-15461526D01*
X9815355Y-15461526D02*
X9805832Y-15452002D01*
X9805832Y-15452002D02*
X9815355Y-15442478D01*
X9815355Y-15442478D02*
X9815355Y-15461526D01*
X10015355Y-15461526D02*
X9901070Y-15461526D01*
X9958213Y-15461526D02*
X9958213Y-15261526D01*
X9958213Y-15261526D02*
X9939165Y-15290097D01*
X9939165Y-15290097D02*
X9920117Y-15309145D01*
X9920117Y-15309145D02*
X9901070Y-15318668D01*
X10082022Y-15261526D02*
X10205832Y-15261526D01*
X10205832Y-15261526D02*
X10139165Y-15337716D01*
X10139165Y-15337716D02*
X10167736Y-15337716D01*
X10167736Y-15337716D02*
X10186784Y-15347240D01*
X10186784Y-15347240D02*
X10196308Y-15356764D01*
X10196308Y-15356764D02*
X10205832Y-15375811D01*
X10205832Y-15375811D02*
X10205832Y-15423430D01*
X10205832Y-15423430D02*
X10196308Y-15442478D01*
X10196308Y-15442478D02*
X10186784Y-15452002D01*
X10186784Y-15452002D02*
X10167736Y-15461526D01*
X10167736Y-15461526D02*
X10110594Y-15461526D01*
X10110594Y-15461526D02*
X10091546Y-15452002D01*
X10091546Y-15452002D02*
X10082022Y-15442478D01*
X10272498Y-15261526D02*
X10405832Y-15261526D01*
X10405832Y-15261526D02*
X10320117Y-15461526D01*
X10510594Y-15347240D02*
X10491546Y-15337716D01*
X10491546Y-15337716D02*
X10482022Y-15328192D01*
X10482022Y-15328192D02*
X10472498Y-15309145D01*
X10472498Y-15309145D02*
X10472498Y-15299621D01*
X10472498Y-15299621D02*
X10482022Y-15280573D01*
X10482022Y-15280573D02*
X10491546Y-15271049D01*
X10491546Y-15271049D02*
X10510594Y-15261526D01*
X10510594Y-15261526D02*
X10548689Y-15261526D01*
X10548689Y-15261526D02*
X10567736Y-15271049D01*
X10567736Y-15271049D02*
X10577260Y-15280573D01*
X10577260Y-15280573D02*
X10586784Y-15299621D01*
X10586784Y-15299621D02*
X10586784Y-15309145D01*
X10586784Y-15309145D02*
X10577260Y-15328192D01*
X10577260Y-15328192D02*
X10567736Y-15337716D01*
X10567736Y-15337716D02*
X10548689Y-15347240D01*
X10548689Y-15347240D02*
X10510594Y-15347240D01*
X10510594Y-15347240D02*
X10491546Y-15356764D01*
X10491546Y-15356764D02*
X10482022Y-15366288D01*
X10482022Y-15366288D02*
X10472498Y-15385335D01*
X10472498Y-15385335D02*
X10472498Y-15423430D01*
X10472498Y-15423430D02*
X10482022Y-15442478D01*
X10482022Y-15442478D02*
X10491546Y-15452002D01*
X10491546Y-15452002D02*
X10510594Y-15461526D01*
X10510594Y-15461526D02*
X10548689Y-15461526D01*
X10548689Y-15461526D02*
X10567736Y-15452002D01*
X10567736Y-15452002D02*
X10577260Y-15442478D01*
X10577260Y-15442478D02*
X10586784Y-15423430D01*
X10586784Y-15423430D02*
X10586784Y-15385335D01*
X10586784Y-15385335D02*
X10577260Y-15366288D01*
X10577260Y-15366288D02*
X10567736Y-15356764D01*
X10567736Y-15356764D02*
X10548689Y-15347240D01*
X10662975Y-15261526D02*
X10662975Y-15299621D01*
X10739165Y-15261526D02*
X10739165Y-15299621D01*
X11034403Y-15537716D02*
X11024879Y-15528192D01*
X11024879Y-15528192D02*
X11005832Y-15499621D01*
X11005832Y-15499621D02*
X10996308Y-15480573D01*
X10996308Y-15480573D02*
X10986784Y-15452002D01*
X10986784Y-15452002D02*
X10977260Y-15404383D01*
X10977260Y-15404383D02*
X10977260Y-15366288D01*
X10977260Y-15366288D02*
X10986784Y-15318668D01*
X10986784Y-15318668D02*
X10996308Y-15290097D01*
X10996308Y-15290097D02*
X11005832Y-15271049D01*
X11005832Y-15271049D02*
X11024879Y-15242478D01*
X11024879Y-15242478D02*
X11034403Y-15232954D01*
X11215355Y-15461526D02*
X11101070Y-15461526D01*
X11158213Y-15461526D02*
X11158213Y-15261526D01*
X11158213Y-15261526D02*
X11139165Y-15290097D01*
X11139165Y-15290097D02*
X11120117Y-15309145D01*
X11120117Y-15309145D02*
X11101070Y-15318668D01*
X11339165Y-15261526D02*
X11358213Y-15261526D01*
X11358213Y-15261526D02*
X11377260Y-15271049D01*
X11377260Y-15271049D02*
X11386784Y-15280573D01*
X11386784Y-15280573D02*
X11396308Y-15299621D01*
X11396308Y-15299621D02*
X11405832Y-15337716D01*
X11405832Y-15337716D02*
X11405832Y-15385335D01*
X11405832Y-15385335D02*
X11396308Y-15423430D01*
X11396308Y-15423430D02*
X11386784Y-15442478D01*
X11386784Y-15442478D02*
X11377260Y-15452002D01*
X11377260Y-15452002D02*
X11358213Y-15461526D01*
X11358213Y-15461526D02*
X11339165Y-15461526D01*
X11339165Y-15461526D02*
X11320117Y-15452002D01*
X11320117Y-15452002D02*
X11310594Y-15442478D01*
X11310594Y-15442478D02*
X11301070Y-15423430D01*
X11301070Y-15423430D02*
X11291546Y-15385335D01*
X11291546Y-15385335D02*
X11291546Y-15337716D01*
X11291546Y-15337716D02*
X11301070Y-15299621D01*
X11301070Y-15299621D02*
X11310594Y-15280573D01*
X11310594Y-15280573D02*
X11320117Y-15271049D01*
X11320117Y-15271049D02*
X11339165Y-15261526D01*
X11643927Y-15461526D02*
X11643927Y-15261526D01*
X11729641Y-15461526D02*
X11729641Y-15356764D01*
X11729641Y-15356764D02*
X11720117Y-15337716D01*
X11720117Y-15337716D02*
X11701070Y-15328192D01*
X11701070Y-15328192D02*
X11672498Y-15328192D01*
X11672498Y-15328192D02*
X11653451Y-15337716D01*
X11653451Y-15337716D02*
X11643927Y-15347240D01*
X11853451Y-15461526D02*
X11834403Y-15452002D01*
X11834403Y-15452002D02*
X11824879Y-15442478D01*
X11824879Y-15442478D02*
X11815356Y-15423430D01*
X11815356Y-15423430D02*
X11815356Y-15366288D01*
X11815356Y-15366288D02*
X11824879Y-15347240D01*
X11824879Y-15347240D02*
X11834403Y-15337716D01*
X11834403Y-15337716D02*
X11853451Y-15328192D01*
X11853451Y-15328192D02*
X11882022Y-15328192D01*
X11882022Y-15328192D02*
X11901070Y-15337716D01*
X11901070Y-15337716D02*
X11910594Y-15347240D01*
X11910594Y-15347240D02*
X11920117Y-15366288D01*
X11920117Y-15366288D02*
X11920117Y-15423430D01*
X11920117Y-15423430D02*
X11910594Y-15442478D01*
X11910594Y-15442478D02*
X11901070Y-15452002D01*
X11901070Y-15452002D02*
X11882022Y-15461526D01*
X11882022Y-15461526D02*
X11853451Y-15461526D01*
X12034403Y-15461526D02*
X12015356Y-15452002D01*
X12015356Y-15452002D02*
X12005832Y-15432954D01*
X12005832Y-15432954D02*
X12005832Y-15261526D01*
X12186784Y-15452002D02*
X12167737Y-15461526D01*
X12167737Y-15461526D02*
X12129641Y-15461526D01*
X12129641Y-15461526D02*
X12110594Y-15452002D01*
X12110594Y-15452002D02*
X12101070Y-15432954D01*
X12101070Y-15432954D02*
X12101070Y-15356764D01*
X12101070Y-15356764D02*
X12110594Y-15337716D01*
X12110594Y-15337716D02*
X12129641Y-15328192D01*
X12129641Y-15328192D02*
X12167737Y-15328192D01*
X12167737Y-15328192D02*
X12186784Y-15337716D01*
X12186784Y-15337716D02*
X12196308Y-15356764D01*
X12196308Y-15356764D02*
X12196308Y-15375811D01*
X12196308Y-15375811D02*
X12101070Y-15394859D01*
X12272498Y-15452002D02*
X12291546Y-15461526D01*
X12291546Y-15461526D02*
X12329641Y-15461526D01*
X12329641Y-15461526D02*
X12348689Y-15452002D01*
X12348689Y-15452002D02*
X12358213Y-15432954D01*
X12358213Y-15432954D02*
X12358213Y-15423430D01*
X12358213Y-15423430D02*
X12348689Y-15404383D01*
X12348689Y-15404383D02*
X12329641Y-15394859D01*
X12329641Y-15394859D02*
X12301070Y-15394859D01*
X12301070Y-15394859D02*
X12282022Y-15385335D01*
X12282022Y-15385335D02*
X12272498Y-15366288D01*
X12272498Y-15366288D02*
X12272498Y-15356764D01*
X12272498Y-15356764D02*
X12282022Y-15337716D01*
X12282022Y-15337716D02*
X12301070Y-15328192D01*
X12301070Y-15328192D02*
X12329641Y-15328192D01*
X12329641Y-15328192D02*
X12348689Y-15337716D01*
X12424879Y-15537716D02*
X12434403Y-15528192D01*
X12434403Y-15528192D02*
X12453451Y-15499621D01*
X12453451Y-15499621D02*
X12462975Y-15480573D01*
X12462975Y-15480573D02*
X12472498Y-15452002D01*
X12472498Y-15452002D02*
X12482022Y-15404383D01*
X12482022Y-15404383D02*
X12482022Y-15366288D01*
X12482022Y-15366288D02*
X12472498Y-15318668D01*
X12472498Y-15318668D02*
X12462975Y-15290097D01*
X12462975Y-15290097D02*
X12453451Y-15271049D01*
X12453451Y-15271049D02*
X12434403Y-15242478D01*
X12434403Y-15242478D02*
X12424879Y-15232954D01*
M02*
