G04 #@! TF.GenerationSoftware,KiCad,Pcbnew,7.0.2*
G04 #@! TF.CreationDate,2024-09-03T00:20:42+03:00*
G04 #@! TF.ProjectId,7seg,37736567-2e6b-4696-9361-645f70636258,rev?*
G04 #@! TF.SameCoordinates,Original*
G04 #@! TF.FileFunction,Profile,NP*
%FSLAX46Y46*%
G04 Gerber Fmt 4.6, Leading zero omitted, Abs format (unit mm)*
G04 Created by KiCad (PCBNEW 7.0.2) date 2024-09-03 00:20:42*
%MOMM*%
%LPD*%
G01*
G04 APERTURE LIST*
G04 #@! TA.AperFunction,Profile*
%ADD10C,0.100000*%
G04 #@! TD*
G04 APERTURE END LIST*
D10*
X111725000Y-94150000D02*
G75*
G03*
X113525000Y-92350000I0J1800000D01*
G01*
X113027944Y-144600018D02*
G75*
G03*
X113876471Y-144248527I56J1199818D01*
G01*
X86123508Y-144248548D02*
G75*
G03*
X86972056Y-144600000I848592J848748D01*
G01*
X88275000Y-132900000D02*
X111725000Y-132900000D01*
X120647792Y-98727208D02*
X124873528Y-94501472D01*
X124873528Y-66748528D02*
X113876472Y-55751472D01*
X124873548Y-94501492D02*
G75*
G03*
X125225000Y-93652944I-848748J848592D01*
G01*
X88275000Y-105850000D02*
G75*
G03*
X86475000Y-107650000I0J-1800000D01*
G01*
X75126452Y-105498508D02*
G75*
G03*
X74775000Y-106347056I848748J-848592D01*
G01*
X113027944Y-55400000D02*
X86972056Y-55400000D01*
X113525000Y-107650000D02*
G75*
G03*
X111725000Y-105850000I-1800000J0D01*
G01*
X74774982Y-132402944D02*
G75*
G03*
X75126473Y-133251471I1199818J-56D01*
G01*
X113876472Y-144248528D02*
X124873528Y-133251472D01*
X74775000Y-106347056D02*
X74775000Y-132402944D01*
X111725000Y-132900000D02*
G75*
G03*
X113525000Y-131100000I0J1800000D01*
G01*
X113525000Y-92350000D02*
X113525000Y-68900000D01*
X79352208Y-101272792D02*
G75*
G03*
X79352208Y-98727208I-1272808J1272792D01*
G01*
X75126472Y-94501472D02*
X79352208Y-98727208D01*
X86475000Y-92350000D02*
G75*
G03*
X88275000Y-94150000I1800000J0D01*
G01*
X120647792Y-98727208D02*
G75*
G03*
X120647792Y-101272792I1272808J-1272792D01*
G01*
X111725000Y-67100000D02*
X88275000Y-67100000D01*
X111725000Y-105850000D02*
X88275000Y-105850000D01*
X75126452Y-66748508D02*
G75*
G03*
X74775000Y-67597056I848748J-848592D01*
G01*
X125225000Y-132402944D02*
X125225000Y-106347056D01*
X88275000Y-67100000D02*
G75*
G03*
X86475000Y-68900000I0J-1800000D01*
G01*
X74775000Y-67597056D02*
X74775000Y-93652944D01*
X125225000Y-93652944D02*
X125225000Y-67597056D01*
X86475000Y-107650000D02*
X86475000Y-131100000D01*
X125225018Y-67597056D02*
G75*
G03*
X124873527Y-66748529I-1199818J56D01*
G01*
X125225018Y-106347056D02*
G75*
G03*
X124873527Y-105498529I-1199818J56D01*
G01*
X88275000Y-94150000D02*
X111725000Y-94150000D01*
X86475000Y-131100000D02*
G75*
G03*
X88275000Y-132900000I1800000J0D01*
G01*
X86972056Y-144600000D02*
X113027944Y-144600000D01*
X86123528Y-55751472D02*
X75126472Y-66748528D01*
X86972056Y-55399982D02*
G75*
G03*
X86123529Y-55751473I-56J-1199818D01*
G01*
X113525000Y-68900000D02*
G75*
G03*
X111725000Y-67100000I-1800000J0D01*
G01*
X86475000Y-68900000D02*
X86475000Y-92350000D01*
X113876492Y-55751452D02*
G75*
G03*
X113027944Y-55400000I-848592J-848748D01*
G01*
X124873528Y-105498528D02*
X120647792Y-101272792D01*
X124873548Y-133251492D02*
G75*
G03*
X125225000Y-132402944I-848748J848592D01*
G01*
X113525000Y-131100000D02*
X113525000Y-107650000D01*
X74774982Y-93652944D02*
G75*
G03*
X75126473Y-94501471I1199818J-56D01*
G01*
X75126472Y-133251472D02*
X86123528Y-144248528D01*
X79352208Y-101272792D02*
X75126472Y-105498528D01*
M02*
