%TF.GenerationSoftware,KiCad,Pcbnew,7.0.2*%
%TF.CreationDate,2024-08-26T22:34:50+03:00*%
%TF.ProjectId,7seg,37736567-2e6b-4696-9361-645f70636258,rev?*%
%TF.SameCoordinates,Original*%
%TF.FileFunction,Drillmap*%
%TF.FilePolarity,Positive*%
%FSLAX45Y45*%
G04 Gerber Fmt 4.5, Leading zero omitted, Abs format (unit mm)*
G04 Created by KiCad (PCBNEW 7.0.2) date 2024-08-26 22:34:50*
%MOMM*%
%LPD*%
G01*
G04 APERTURE LIST*
%ADD10C,0.100000*%
%ADD11C,0.200000*%
G04 APERTURE END LIST*
D10*
X11172500Y-9415000D02*
G75*
G03*
X11352500Y-9235000I0J180000D01*
G01*
X11302794Y-14460002D02*
G75*
G03*
X11387647Y-14424853I6J119982D01*
G01*
X8612351Y-14424855D02*
G75*
G03*
X8697206Y-14460000I84859J84875D01*
G01*
X8827500Y-13290000D02*
X11172500Y-13290000D01*
X12064779Y-9872721D02*
X12487353Y-9450147D01*
X12487353Y-6674853D02*
X11387647Y-5575147D01*
X12487355Y-9450149D02*
G75*
G03*
X12522500Y-9365294I-84875J84859D01*
G01*
X8827500Y-10585000D02*
G75*
G03*
X8647500Y-10765000I0J-180000D01*
G01*
X7512645Y-10549851D02*
G75*
G03*
X7477500Y-10634706I84875J-84859D01*
G01*
X11302794Y-5540000D02*
X8697206Y-5540000D01*
X11352500Y-10765000D02*
G75*
G03*
X11172500Y-10585000I-180000J0D01*
G01*
X7477498Y-13240294D02*
G75*
G03*
X7512647Y-13325147I119982J-6D01*
G01*
X11387647Y-14424853D02*
X12487353Y-13325147D01*
X7477500Y-10634706D02*
X7477500Y-13240294D01*
X11172500Y-13290000D02*
G75*
G03*
X11352500Y-13110000I0J180000D01*
G01*
X11352500Y-9235000D02*
X11352500Y-6890000D01*
X7935221Y-10127279D02*
G75*
G03*
X7935221Y-9872721I-127281J127279D01*
G01*
X7512647Y-9450147D02*
X7935221Y-9872721D01*
X8647500Y-9235000D02*
G75*
G03*
X8827500Y-9415000I180000J0D01*
G01*
X12064779Y-9872721D02*
G75*
G03*
X12064779Y-10127279I127281J-127279D01*
G01*
X11172500Y-6710000D02*
X8827500Y-6710000D01*
X11172500Y-10585000D02*
X8827500Y-10585000D01*
X7512645Y-6674851D02*
G75*
G03*
X7477500Y-6759706I84875J-84859D01*
G01*
X12522500Y-13240294D02*
X12522500Y-10634706D01*
X8827500Y-6710000D02*
G75*
G03*
X8647500Y-6890000I0J-180000D01*
G01*
X7477500Y-6759706D02*
X7477500Y-9365294D01*
X12522500Y-9365294D02*
X12522500Y-6759706D01*
X8647500Y-10765000D02*
X8647500Y-13110000D01*
X12522502Y-6759706D02*
G75*
G03*
X12487353Y-6674853I-119982J6D01*
G01*
X12522502Y-10634706D02*
G75*
G03*
X12487353Y-10549853I-119982J6D01*
G01*
X8827500Y-9415000D02*
X11172500Y-9415000D01*
X8647500Y-13110000D02*
G75*
G03*
X8827500Y-13290000I180000J0D01*
G01*
X8697206Y-14460000D02*
X11302794Y-14460000D01*
X8612353Y-5575147D02*
X7512647Y-6674853D01*
X8697206Y-5539998D02*
G75*
G03*
X8612353Y-5575147I-6J-119982D01*
G01*
X11352500Y-6890000D02*
G75*
G03*
X11172500Y-6710000I-180000J0D01*
G01*
X8647500Y-6890000D02*
X8647500Y-9235000D01*
X11387649Y-5575145D02*
G75*
G03*
X11302794Y-5540000I-84859J-84875D01*
G01*
X12487353Y-10549853D02*
X12064779Y-10127279D01*
X12487355Y-13325149D02*
G75*
G03*
X12522500Y-13240294I-84875J84859D01*
G01*
X11352500Y-13110000D02*
X11352500Y-10765000D01*
X7477498Y-9365294D02*
G75*
G03*
X7512647Y-9450147I119982J-6D01*
G01*
X7512647Y-13325147D02*
X8612353Y-14424853D01*
X7935221Y-10127279D02*
X7512647Y-10549853D01*
D11*
X7720117Y-14777526D02*
X7720117Y-14577526D01*
X7720117Y-14577526D02*
X7767736Y-14577526D01*
X7767736Y-14577526D02*
X7796308Y-14587049D01*
X7796308Y-14587049D02*
X7815355Y-14606097D01*
X7815355Y-14606097D02*
X7824879Y-14625145D01*
X7824879Y-14625145D02*
X7834403Y-14663240D01*
X7834403Y-14663240D02*
X7834403Y-14691811D01*
X7834403Y-14691811D02*
X7824879Y-14729907D01*
X7824879Y-14729907D02*
X7815355Y-14748954D01*
X7815355Y-14748954D02*
X7796308Y-14768002D01*
X7796308Y-14768002D02*
X7767736Y-14777526D01*
X7767736Y-14777526D02*
X7720117Y-14777526D01*
X7920117Y-14777526D02*
X7920117Y-14644192D01*
X7920117Y-14682288D02*
X7929641Y-14663240D01*
X7929641Y-14663240D02*
X7939165Y-14653716D01*
X7939165Y-14653716D02*
X7958212Y-14644192D01*
X7958212Y-14644192D02*
X7977260Y-14644192D01*
X8043927Y-14777526D02*
X8043927Y-14644192D01*
X8043927Y-14577526D02*
X8034403Y-14587049D01*
X8034403Y-14587049D02*
X8043927Y-14596573D01*
X8043927Y-14596573D02*
X8053450Y-14587049D01*
X8053450Y-14587049D02*
X8043927Y-14577526D01*
X8043927Y-14577526D02*
X8043927Y-14596573D01*
X8167736Y-14777526D02*
X8148688Y-14768002D01*
X8148688Y-14768002D02*
X8139165Y-14748954D01*
X8139165Y-14748954D02*
X8139165Y-14577526D01*
X8272498Y-14777526D02*
X8253450Y-14768002D01*
X8253450Y-14768002D02*
X8243927Y-14748954D01*
X8243927Y-14748954D02*
X8243927Y-14577526D01*
X8501070Y-14777526D02*
X8501070Y-14577526D01*
X8501070Y-14577526D02*
X8567736Y-14720383D01*
X8567736Y-14720383D02*
X8634403Y-14577526D01*
X8634403Y-14577526D02*
X8634403Y-14777526D01*
X8815355Y-14777526D02*
X8815355Y-14672764D01*
X8815355Y-14672764D02*
X8805831Y-14653716D01*
X8805831Y-14653716D02*
X8786784Y-14644192D01*
X8786784Y-14644192D02*
X8748689Y-14644192D01*
X8748689Y-14644192D02*
X8729641Y-14653716D01*
X8815355Y-14768002D02*
X8796308Y-14777526D01*
X8796308Y-14777526D02*
X8748689Y-14777526D01*
X8748689Y-14777526D02*
X8729641Y-14768002D01*
X8729641Y-14768002D02*
X8720117Y-14748954D01*
X8720117Y-14748954D02*
X8720117Y-14729907D01*
X8720117Y-14729907D02*
X8729641Y-14710859D01*
X8729641Y-14710859D02*
X8748689Y-14701335D01*
X8748689Y-14701335D02*
X8796308Y-14701335D01*
X8796308Y-14701335D02*
X8815355Y-14691811D01*
X8910593Y-14644192D02*
X8910593Y-14844192D01*
X8910593Y-14653716D02*
X8929641Y-14644192D01*
X8929641Y-14644192D02*
X8967736Y-14644192D01*
X8967736Y-14644192D02*
X8986784Y-14653716D01*
X8986784Y-14653716D02*
X8996308Y-14663240D01*
X8996308Y-14663240D02*
X9005831Y-14682288D01*
X9005831Y-14682288D02*
X9005831Y-14739430D01*
X9005831Y-14739430D02*
X8996308Y-14758478D01*
X8996308Y-14758478D02*
X8986784Y-14768002D01*
X8986784Y-14768002D02*
X8967736Y-14777526D01*
X8967736Y-14777526D02*
X8929641Y-14777526D01*
X8929641Y-14777526D02*
X8910593Y-14768002D01*
X9091546Y-14758478D02*
X9101070Y-14768002D01*
X9101070Y-14768002D02*
X9091546Y-14777526D01*
X9091546Y-14777526D02*
X9082022Y-14768002D01*
X9082022Y-14768002D02*
X9091546Y-14758478D01*
X9091546Y-14758478D02*
X9091546Y-14777526D01*
X9091546Y-14653716D02*
X9101070Y-14663240D01*
X9101070Y-14663240D02*
X9091546Y-14672764D01*
X9091546Y-14672764D02*
X9082022Y-14663240D01*
X9082022Y-14663240D02*
X9091546Y-14653716D01*
X9091546Y-14653716D02*
X9091546Y-14672764D01*
M02*
