G04 #@! TF.GenerationSoftware,KiCad,Pcbnew,7.0.2*
G04 #@! TF.CreationDate,2024-09-03T00:20:42+03:00*
G04 #@! TF.ProjectId,7seg,37736567-2e6b-4696-9361-645f70636258,rev?*
G04 #@! TF.SameCoordinates,Original*
G04 #@! TF.FileFunction,Legend,Top*
G04 #@! TF.FilePolarity,Positive*
%FSLAX46Y46*%
G04 Gerber Fmt 4.6, Leading zero omitted, Abs format (unit mm)*
G04 Created by KiCad (PCBNEW 7.0.2) date 2024-09-03 00:20:42*
%MOMM*%
%LPD*%
G01*
G04 APERTURE LIST*
G04 Aperture macros list*
%AMRoundRect*
0 Rectangle with rounded corners*
0 $1 Rounding radius*
0 $2 $3 $4 $5 $6 $7 $8 $9 X,Y pos of 4 corners*
0 Add a 4 corners polygon primitive as box body*
4,1,4,$2,$3,$4,$5,$6,$7,$8,$9,$2,$3,0*
0 Add four circle primitives for the rounded corners*
1,1,$1+$1,$2,$3*
1,1,$1+$1,$4,$5*
1,1,$1+$1,$6,$7*
1,1,$1+$1,$8,$9*
0 Add four rect primitives between the rounded corners*
20,1,$1+$1,$2,$3,$4,$5,0*
20,1,$1+$1,$4,$5,$6,$7,0*
20,1,$1+$1,$6,$7,$8,$9,0*
20,1,$1+$1,$8,$9,$2,$3,0*%
G04 Aperture macros list end*
%ADD10C,0.150000*%
%ADD11C,0.200000*%
%ADD12C,0.500000*%
%ADD13RoundRect,0.250000X0.412500X1.100000X-0.412500X1.100000X-0.412500X-1.100000X0.412500X-1.100000X0*%
%ADD14RoundRect,0.250000X-0.412500X-1.100000X0.412500X-1.100000X0.412500X1.100000X-0.412500X1.100000X0*%
%ADD15RoundRect,0.250000X1.100000X-0.412500X1.100000X0.412500X-1.100000X0.412500X-1.100000X-0.412500X0*%
%ADD16R,0.900000X1.500000*%
%ADD17R,1.500000X0.900000*%
%ADD18O,2.000000X2.200000*%
%ADD19O,2.000000X2.400000*%
G04 APERTURE END LIST*
D10*
X97571428Y-95548928D02*
X98571428Y-95548928D01*
X98571428Y-95548928D02*
X97928571Y-97048928D01*
X99071428Y-96977500D02*
X99214285Y-97048928D01*
X99214285Y-97048928D02*
X99499999Y-97048928D01*
X99499999Y-97048928D02*
X99642856Y-96977500D01*
X99642856Y-96977500D02*
X99714285Y-96834642D01*
X99714285Y-96834642D02*
X99714285Y-96763214D01*
X99714285Y-96763214D02*
X99642856Y-96620357D01*
X99642856Y-96620357D02*
X99499999Y-96548928D01*
X99499999Y-96548928D02*
X99285714Y-96548928D01*
X99285714Y-96548928D02*
X99142856Y-96477500D01*
X99142856Y-96477500D02*
X99071428Y-96334642D01*
X99071428Y-96334642D02*
X99071428Y-96263214D01*
X99071428Y-96263214D02*
X99142856Y-96120357D01*
X99142856Y-96120357D02*
X99285714Y-96048928D01*
X99285714Y-96048928D02*
X99499999Y-96048928D01*
X99499999Y-96048928D02*
X99642856Y-96120357D01*
X100928571Y-96977500D02*
X100785714Y-97048928D01*
X100785714Y-97048928D02*
X100500000Y-97048928D01*
X100500000Y-97048928D02*
X100357142Y-96977500D01*
X100357142Y-96977500D02*
X100285714Y-96834642D01*
X100285714Y-96834642D02*
X100285714Y-96263214D01*
X100285714Y-96263214D02*
X100357142Y-96120357D01*
X100357142Y-96120357D02*
X100500000Y-96048928D01*
X100500000Y-96048928D02*
X100785714Y-96048928D01*
X100785714Y-96048928D02*
X100928571Y-96120357D01*
X100928571Y-96120357D02*
X101000000Y-96263214D01*
X101000000Y-96263214D02*
X101000000Y-96406071D01*
X101000000Y-96406071D02*
X100285714Y-96548928D01*
X102285714Y-96048928D02*
X102285714Y-97263214D01*
X102285714Y-97263214D02*
X102214285Y-97406071D01*
X102214285Y-97406071D02*
X102142856Y-97477500D01*
X102142856Y-97477500D02*
X101999999Y-97548928D01*
X101999999Y-97548928D02*
X101785714Y-97548928D01*
X101785714Y-97548928D02*
X101642856Y-97477500D01*
X102285714Y-96977500D02*
X102142856Y-97048928D01*
X102142856Y-97048928D02*
X101857142Y-97048928D01*
X101857142Y-97048928D02*
X101714285Y-96977500D01*
X101714285Y-96977500D02*
X101642856Y-96906071D01*
X101642856Y-96906071D02*
X101571428Y-96763214D01*
X101571428Y-96763214D02*
X101571428Y-96334642D01*
X101571428Y-96334642D02*
X101642856Y-96191785D01*
X101642856Y-96191785D02*
X101714285Y-96120357D01*
X101714285Y-96120357D02*
X101857142Y-96048928D01*
X101857142Y-96048928D02*
X102142856Y-96048928D01*
X102142856Y-96048928D02*
X102285714Y-96120357D01*
X97857143Y-98478928D02*
X98214286Y-99478928D01*
X98214286Y-99478928D02*
X98571429Y-98478928D01*
X99428572Y-97978928D02*
X99571429Y-97978928D01*
X99571429Y-97978928D02*
X99714286Y-98050357D01*
X99714286Y-98050357D02*
X99785715Y-98121785D01*
X99785715Y-98121785D02*
X99857143Y-98264642D01*
X99857143Y-98264642D02*
X99928572Y-98550357D01*
X99928572Y-98550357D02*
X99928572Y-98907500D01*
X99928572Y-98907500D02*
X99857143Y-99193214D01*
X99857143Y-99193214D02*
X99785715Y-99336071D01*
X99785715Y-99336071D02*
X99714286Y-99407500D01*
X99714286Y-99407500D02*
X99571429Y-99478928D01*
X99571429Y-99478928D02*
X99428572Y-99478928D01*
X99428572Y-99478928D02*
X99285715Y-99407500D01*
X99285715Y-99407500D02*
X99214286Y-99336071D01*
X99214286Y-99336071D02*
X99142857Y-99193214D01*
X99142857Y-99193214D02*
X99071429Y-98907500D01*
X99071429Y-98907500D02*
X99071429Y-98550357D01*
X99071429Y-98550357D02*
X99142857Y-98264642D01*
X99142857Y-98264642D02*
X99214286Y-98121785D01*
X99214286Y-98121785D02*
X99285715Y-98050357D01*
X99285715Y-98050357D02*
X99428572Y-97978928D01*
X100571428Y-99336071D02*
X100642857Y-99407500D01*
X100642857Y-99407500D02*
X100571428Y-99478928D01*
X100571428Y-99478928D02*
X100500000Y-99407500D01*
X100500000Y-99407500D02*
X100571428Y-99336071D01*
X100571428Y-99336071D02*
X100571428Y-99478928D01*
X102071429Y-99478928D02*
X101214286Y-99478928D01*
X101642857Y-99478928D02*
X101642857Y-97978928D01*
X101642857Y-97978928D02*
X101500000Y-98193214D01*
X101500000Y-98193214D02*
X101357143Y-98336071D01*
X101357143Y-98336071D02*
X101214286Y-98407500D01*
X96392858Y-101908928D02*
X96392858Y-100408928D01*
X96392858Y-101837500D02*
X96250000Y-101908928D01*
X96250000Y-101908928D02*
X95964286Y-101908928D01*
X95964286Y-101908928D02*
X95821429Y-101837500D01*
X95821429Y-101837500D02*
X95750000Y-101766071D01*
X95750000Y-101766071D02*
X95678572Y-101623214D01*
X95678572Y-101623214D02*
X95678572Y-101194642D01*
X95678572Y-101194642D02*
X95750000Y-101051785D01*
X95750000Y-101051785D02*
X95821429Y-100980357D01*
X95821429Y-100980357D02*
X95964286Y-100908928D01*
X95964286Y-100908928D02*
X96250000Y-100908928D01*
X96250000Y-100908928D02*
X96392858Y-100980357D01*
X97678572Y-101837500D02*
X97535715Y-101908928D01*
X97535715Y-101908928D02*
X97250001Y-101908928D01*
X97250001Y-101908928D02*
X97107143Y-101837500D01*
X97107143Y-101837500D02*
X97035715Y-101694642D01*
X97035715Y-101694642D02*
X97035715Y-101123214D01*
X97035715Y-101123214D02*
X97107143Y-100980357D01*
X97107143Y-100980357D02*
X97250001Y-100908928D01*
X97250001Y-100908928D02*
X97535715Y-100908928D01*
X97535715Y-100908928D02*
X97678572Y-100980357D01*
X97678572Y-100980357D02*
X97750001Y-101123214D01*
X97750001Y-101123214D02*
X97750001Y-101266071D01*
X97750001Y-101266071D02*
X97035715Y-101408928D01*
X98178572Y-100908928D02*
X98750000Y-100908928D01*
X98392857Y-101908928D02*
X98392857Y-100623214D01*
X98392857Y-100623214D02*
X98464286Y-100480357D01*
X98464286Y-100480357D02*
X98607143Y-100408928D01*
X98607143Y-100408928D02*
X98750000Y-100408928D01*
X99035715Y-100908928D02*
X99607143Y-100908928D01*
X99250000Y-101908928D02*
X99250000Y-100623214D01*
X99250000Y-100623214D02*
X99321429Y-100480357D01*
X99321429Y-100480357D02*
X99464286Y-100408928D01*
X99464286Y-100408928D02*
X99607143Y-100408928D01*
X100678572Y-101837500D02*
X100535715Y-101908928D01*
X100535715Y-101908928D02*
X100250001Y-101908928D01*
X100250001Y-101908928D02*
X100107143Y-101837500D01*
X100107143Y-101837500D02*
X100035715Y-101694642D01*
X100035715Y-101694642D02*
X100035715Y-101123214D01*
X100035715Y-101123214D02*
X100107143Y-100980357D01*
X100107143Y-100980357D02*
X100250001Y-100908928D01*
X100250001Y-100908928D02*
X100535715Y-100908928D01*
X100535715Y-100908928D02*
X100678572Y-100980357D01*
X100678572Y-100980357D02*
X100750001Y-101123214D01*
X100750001Y-101123214D02*
X100750001Y-101266071D01*
X100750001Y-101266071D02*
X100035715Y-101408928D01*
X101392857Y-100908928D02*
X101392857Y-101908928D01*
X101392857Y-101051785D02*
X101464286Y-100980357D01*
X101464286Y-100980357D02*
X101607143Y-100908928D01*
X101607143Y-100908928D02*
X101821429Y-100908928D01*
X101821429Y-100908928D02*
X101964286Y-100980357D01*
X101964286Y-100980357D02*
X102035715Y-101123214D01*
X102035715Y-101123214D02*
X102035715Y-101908928D01*
X103321429Y-101837500D02*
X103178572Y-101908928D01*
X103178572Y-101908928D02*
X102892858Y-101908928D01*
X102892858Y-101908928D02*
X102750000Y-101837500D01*
X102750000Y-101837500D02*
X102678572Y-101694642D01*
X102678572Y-101694642D02*
X102678572Y-101123214D01*
X102678572Y-101123214D02*
X102750000Y-100980357D01*
X102750000Y-100980357D02*
X102892858Y-100908928D01*
X102892858Y-100908928D02*
X103178572Y-100908928D01*
X103178572Y-100908928D02*
X103321429Y-100980357D01*
X103321429Y-100980357D02*
X103392858Y-101123214D01*
X103392858Y-101123214D02*
X103392858Y-101266071D01*
X103392858Y-101266071D02*
X102678572Y-101408928D01*
X104035714Y-101908928D02*
X104035714Y-100908928D01*
X104035714Y-101194642D02*
X104107143Y-101051785D01*
X104107143Y-101051785D02*
X104178572Y-100980357D01*
X104178572Y-100980357D02*
X104321429Y-100908928D01*
X104321429Y-100908928D02*
X104464286Y-100908928D01*
X97428572Y-102981785D02*
X97500000Y-102910357D01*
X97500000Y-102910357D02*
X97642858Y-102838928D01*
X97642858Y-102838928D02*
X98000000Y-102838928D01*
X98000000Y-102838928D02*
X98142858Y-102910357D01*
X98142858Y-102910357D02*
X98214286Y-102981785D01*
X98214286Y-102981785D02*
X98285715Y-103124642D01*
X98285715Y-103124642D02*
X98285715Y-103267500D01*
X98285715Y-103267500D02*
X98214286Y-103481785D01*
X98214286Y-103481785D02*
X97357143Y-104338928D01*
X97357143Y-104338928D02*
X98285715Y-104338928D01*
X99214286Y-102838928D02*
X99357143Y-102838928D01*
X99357143Y-102838928D02*
X99500000Y-102910357D01*
X99500000Y-102910357D02*
X99571429Y-102981785D01*
X99571429Y-102981785D02*
X99642857Y-103124642D01*
X99642857Y-103124642D02*
X99714286Y-103410357D01*
X99714286Y-103410357D02*
X99714286Y-103767500D01*
X99714286Y-103767500D02*
X99642857Y-104053214D01*
X99642857Y-104053214D02*
X99571429Y-104196071D01*
X99571429Y-104196071D02*
X99500000Y-104267500D01*
X99500000Y-104267500D02*
X99357143Y-104338928D01*
X99357143Y-104338928D02*
X99214286Y-104338928D01*
X99214286Y-104338928D02*
X99071429Y-104267500D01*
X99071429Y-104267500D02*
X99000000Y-104196071D01*
X99000000Y-104196071D02*
X98928571Y-104053214D01*
X98928571Y-104053214D02*
X98857143Y-103767500D01*
X98857143Y-103767500D02*
X98857143Y-103410357D01*
X98857143Y-103410357D02*
X98928571Y-103124642D01*
X98928571Y-103124642D02*
X99000000Y-102981785D01*
X99000000Y-102981785D02*
X99071429Y-102910357D01*
X99071429Y-102910357D02*
X99214286Y-102838928D01*
X100285714Y-102981785D02*
X100357142Y-102910357D01*
X100357142Y-102910357D02*
X100500000Y-102838928D01*
X100500000Y-102838928D02*
X100857142Y-102838928D01*
X100857142Y-102838928D02*
X101000000Y-102910357D01*
X101000000Y-102910357D02*
X101071428Y-102981785D01*
X101071428Y-102981785D02*
X101142857Y-103124642D01*
X101142857Y-103124642D02*
X101142857Y-103267500D01*
X101142857Y-103267500D02*
X101071428Y-103481785D01*
X101071428Y-103481785D02*
X100214285Y-104338928D01*
X100214285Y-104338928D02*
X101142857Y-104338928D01*
X102428571Y-103338928D02*
X102428571Y-104338928D01*
X102071428Y-102767500D02*
X101714285Y-103838928D01*
X101714285Y-103838928D02*
X102642856Y-103838928D01*
D11*
X95380951Y-56612619D02*
X95380951Y-57326904D01*
X95380951Y-57326904D02*
X95333332Y-57469761D01*
X95333332Y-57469761D02*
X95238094Y-57565000D01*
X95238094Y-57565000D02*
X95095237Y-57612619D01*
X95095237Y-57612619D02*
X94999999Y-57612619D01*
X96333332Y-57612619D02*
X95857142Y-57612619D01*
X95857142Y-57612619D02*
X95857142Y-56612619D01*
X97238094Y-57517380D02*
X97190475Y-57565000D01*
X97190475Y-57565000D02*
X97047618Y-57612619D01*
X97047618Y-57612619D02*
X96952380Y-57612619D01*
X96952380Y-57612619D02*
X96809523Y-57565000D01*
X96809523Y-57565000D02*
X96714285Y-57469761D01*
X96714285Y-57469761D02*
X96666666Y-57374523D01*
X96666666Y-57374523D02*
X96619047Y-57184047D01*
X96619047Y-57184047D02*
X96619047Y-57041190D01*
X96619047Y-57041190D02*
X96666666Y-56850714D01*
X96666666Y-56850714D02*
X96714285Y-56755476D01*
X96714285Y-56755476D02*
X96809523Y-56660238D01*
X96809523Y-56660238D02*
X96952380Y-56612619D01*
X96952380Y-56612619D02*
X97047618Y-56612619D01*
X97047618Y-56612619D02*
X97190475Y-56660238D01*
X97190475Y-56660238D02*
X97238094Y-56707857D01*
X97952380Y-56612619D02*
X97952380Y-57326904D01*
X97952380Y-57326904D02*
X97904761Y-57469761D01*
X97904761Y-57469761D02*
X97809523Y-57565000D01*
X97809523Y-57565000D02*
X97666666Y-57612619D01*
X97666666Y-57612619D02*
X97571428Y-57612619D01*
X98904761Y-57612619D02*
X98428571Y-57612619D01*
X98428571Y-57612619D02*
X98428571Y-56612619D01*
X99809523Y-57517380D02*
X99761904Y-57565000D01*
X99761904Y-57565000D02*
X99619047Y-57612619D01*
X99619047Y-57612619D02*
X99523809Y-57612619D01*
X99523809Y-57612619D02*
X99380952Y-57565000D01*
X99380952Y-57565000D02*
X99285714Y-57469761D01*
X99285714Y-57469761D02*
X99238095Y-57374523D01*
X99238095Y-57374523D02*
X99190476Y-57184047D01*
X99190476Y-57184047D02*
X99190476Y-57041190D01*
X99190476Y-57041190D02*
X99238095Y-56850714D01*
X99238095Y-56850714D02*
X99285714Y-56755476D01*
X99285714Y-56755476D02*
X99380952Y-56660238D01*
X99380952Y-56660238D02*
X99523809Y-56612619D01*
X99523809Y-56612619D02*
X99619047Y-56612619D01*
X99619047Y-56612619D02*
X99761904Y-56660238D01*
X99761904Y-56660238D02*
X99809523Y-56707857D01*
X100523809Y-56612619D02*
X100523809Y-57326904D01*
X100523809Y-57326904D02*
X100476190Y-57469761D01*
X100476190Y-57469761D02*
X100380952Y-57565000D01*
X100380952Y-57565000D02*
X100238095Y-57612619D01*
X100238095Y-57612619D02*
X100142857Y-57612619D01*
X101476190Y-57612619D02*
X101000000Y-57612619D01*
X101000000Y-57612619D02*
X101000000Y-56612619D01*
X102380952Y-57517380D02*
X102333333Y-57565000D01*
X102333333Y-57565000D02*
X102190476Y-57612619D01*
X102190476Y-57612619D02*
X102095238Y-57612619D01*
X102095238Y-57612619D02*
X101952381Y-57565000D01*
X101952381Y-57565000D02*
X101857143Y-57469761D01*
X101857143Y-57469761D02*
X101809524Y-57374523D01*
X101809524Y-57374523D02*
X101761905Y-57184047D01*
X101761905Y-57184047D02*
X101761905Y-57041190D01*
X101761905Y-57041190D02*
X101809524Y-56850714D01*
X101809524Y-56850714D02*
X101857143Y-56755476D01*
X101857143Y-56755476D02*
X101952381Y-56660238D01*
X101952381Y-56660238D02*
X102095238Y-56612619D01*
X102095238Y-56612619D02*
X102190476Y-56612619D01*
X102190476Y-56612619D02*
X102333333Y-56660238D01*
X102333333Y-56660238D02*
X102380952Y-56707857D01*
X103095238Y-56612619D02*
X103095238Y-57326904D01*
X103095238Y-57326904D02*
X103047619Y-57469761D01*
X103047619Y-57469761D02*
X102952381Y-57565000D01*
X102952381Y-57565000D02*
X102809524Y-57612619D01*
X102809524Y-57612619D02*
X102714286Y-57612619D01*
X104047619Y-57612619D02*
X103571429Y-57612619D01*
X103571429Y-57612619D02*
X103571429Y-56612619D01*
X104952381Y-57517380D02*
X104904762Y-57565000D01*
X104904762Y-57565000D02*
X104761905Y-57612619D01*
X104761905Y-57612619D02*
X104666667Y-57612619D01*
X104666667Y-57612619D02*
X104523810Y-57565000D01*
X104523810Y-57565000D02*
X104428572Y-57469761D01*
X104428572Y-57469761D02*
X104380953Y-57374523D01*
X104380953Y-57374523D02*
X104333334Y-57184047D01*
X104333334Y-57184047D02*
X104333334Y-57041190D01*
X104333334Y-57041190D02*
X104380953Y-56850714D01*
X104380953Y-56850714D02*
X104428572Y-56755476D01*
X104428572Y-56755476D02*
X104523810Y-56660238D01*
X104523810Y-56660238D02*
X104666667Y-56612619D01*
X104666667Y-56612619D02*
X104761905Y-56612619D01*
X104761905Y-56612619D02*
X104904762Y-56660238D01*
X104904762Y-56660238D02*
X104952381Y-56707857D01*
D10*
X104451071Y-63595142D02*
X104451071Y-63023714D01*
X104451071Y-63023714D02*
X103736785Y-62966571D01*
X103736785Y-62966571D02*
X103808214Y-63023714D01*
X103808214Y-63023714D02*
X103879642Y-63138000D01*
X103879642Y-63138000D02*
X103879642Y-63423714D01*
X103879642Y-63423714D02*
X103808214Y-63538000D01*
X103808214Y-63538000D02*
X103736785Y-63595142D01*
X103736785Y-63595142D02*
X103593928Y-63652285D01*
X103593928Y-63652285D02*
X103236785Y-63652285D01*
X103236785Y-63652285D02*
X103093928Y-63595142D01*
X103093928Y-63595142D02*
X103022500Y-63538000D01*
X103022500Y-63538000D02*
X102951071Y-63423714D01*
X102951071Y-63423714D02*
X102951071Y-63138000D01*
X102951071Y-63138000D02*
X103022500Y-63023714D01*
X103022500Y-63023714D02*
X103093928Y-62966571D01*
X104451071Y-63995142D02*
X102951071Y-64395142D01*
X102951071Y-64395142D02*
X104451071Y-64795142D01*
X100521071Y-63023714D02*
X102021071Y-63023714D01*
X102021071Y-63023714D02*
X102021071Y-63309428D01*
X102021071Y-63309428D02*
X101949642Y-63480857D01*
X101949642Y-63480857D02*
X101806785Y-63595142D01*
X101806785Y-63595142D02*
X101663928Y-63652285D01*
X101663928Y-63652285D02*
X101378214Y-63709428D01*
X101378214Y-63709428D02*
X101163928Y-63709428D01*
X101163928Y-63709428D02*
X100878214Y-63652285D01*
X100878214Y-63652285D02*
X100735357Y-63595142D01*
X100735357Y-63595142D02*
X100592500Y-63480857D01*
X100592500Y-63480857D02*
X100521071Y-63309428D01*
X100521071Y-63309428D02*
X100521071Y-63023714D01*
X102021071Y-64452285D02*
X102021071Y-64680857D01*
X102021071Y-64680857D02*
X101949642Y-64795142D01*
X101949642Y-64795142D02*
X101806785Y-64909428D01*
X101806785Y-64909428D02*
X101521071Y-64966571D01*
X101521071Y-64966571D02*
X101021071Y-64966571D01*
X101021071Y-64966571D02*
X100735357Y-64909428D01*
X100735357Y-64909428D02*
X100592500Y-64795142D01*
X100592500Y-64795142D02*
X100521071Y-64680857D01*
X100521071Y-64680857D02*
X100521071Y-64452285D01*
X100521071Y-64452285D02*
X100592500Y-64338000D01*
X100592500Y-64338000D02*
X100735357Y-64223714D01*
X100735357Y-64223714D02*
X101021071Y-64166571D01*
X101021071Y-64166571D02*
X101521071Y-64166571D01*
X101521071Y-64166571D02*
X101806785Y-64223714D01*
X101806785Y-64223714D02*
X101949642Y-64338000D01*
X101949642Y-64338000D02*
X102021071Y-64452285D01*
X98091071Y-63023714D02*
X99591071Y-63023714D01*
X99591071Y-63023714D02*
X99591071Y-63309428D01*
X99591071Y-63309428D02*
X99519642Y-63480857D01*
X99519642Y-63480857D02*
X99376785Y-63595142D01*
X99376785Y-63595142D02*
X99233928Y-63652285D01*
X99233928Y-63652285D02*
X98948214Y-63709428D01*
X98948214Y-63709428D02*
X98733928Y-63709428D01*
X98733928Y-63709428D02*
X98448214Y-63652285D01*
X98448214Y-63652285D02*
X98305357Y-63595142D01*
X98305357Y-63595142D02*
X98162500Y-63480857D01*
X98162500Y-63480857D02*
X98091071Y-63309428D01*
X98091071Y-63309428D02*
X98091071Y-63023714D01*
X98091071Y-64223714D02*
X99591071Y-64223714D01*
X97089642Y-63652285D02*
X97161071Y-63538000D01*
X97161071Y-63538000D02*
X97161071Y-63366571D01*
X97161071Y-63366571D02*
X97089642Y-63195142D01*
X97089642Y-63195142D02*
X96946785Y-63080857D01*
X96946785Y-63080857D02*
X96803928Y-63023714D01*
X96803928Y-63023714D02*
X96518214Y-62966571D01*
X96518214Y-62966571D02*
X96303928Y-62966571D01*
X96303928Y-62966571D02*
X96018214Y-63023714D01*
X96018214Y-63023714D02*
X95875357Y-63080857D01*
X95875357Y-63080857D02*
X95732500Y-63195142D01*
X95732500Y-63195142D02*
X95661071Y-63366571D01*
X95661071Y-63366571D02*
X95661071Y-63480857D01*
X95661071Y-63480857D02*
X95732500Y-63652285D01*
X95732500Y-63652285D02*
X95803928Y-63709428D01*
X95803928Y-63709428D02*
X96303928Y-63709428D01*
X96303928Y-63709428D02*
X96303928Y-63480857D01*
X95661071Y-64223714D02*
X97161071Y-64223714D01*
X97161071Y-64223714D02*
X95661071Y-64909428D01*
X95661071Y-64909428D02*
X97161071Y-64909428D01*
X95661071Y-65480857D02*
X97161071Y-65480857D01*
X97161071Y-65480857D02*
X97161071Y-65766571D01*
X97161071Y-65766571D02*
X97089642Y-65938000D01*
X97089642Y-65938000D02*
X96946785Y-66052285D01*
X96946785Y-66052285D02*
X96803928Y-66109428D01*
X96803928Y-66109428D02*
X96518214Y-66166571D01*
X96518214Y-66166571D02*
X96303928Y-66166571D01*
X96303928Y-66166571D02*
X96018214Y-66109428D01*
X96018214Y-66109428D02*
X95875357Y-66052285D01*
X95875357Y-66052285D02*
X95732500Y-65938000D01*
X95732500Y-65938000D02*
X95661071Y-65766571D01*
X95661071Y-65766571D02*
X95661071Y-65480857D01*
X122842380Y-80791166D02*
X122890000Y-80838785D01*
X122890000Y-80838785D02*
X122937619Y-80981642D01*
X122937619Y-80981642D02*
X122937619Y-81076880D01*
X122937619Y-81076880D02*
X122890000Y-81219737D01*
X122890000Y-81219737D02*
X122794761Y-81314975D01*
X122794761Y-81314975D02*
X122699523Y-81362594D01*
X122699523Y-81362594D02*
X122509047Y-81410213D01*
X122509047Y-81410213D02*
X122366190Y-81410213D01*
X122366190Y-81410213D02*
X122175714Y-81362594D01*
X122175714Y-81362594D02*
X122080476Y-81314975D01*
X122080476Y-81314975D02*
X121985238Y-81219737D01*
X121985238Y-81219737D02*
X121937619Y-81076880D01*
X121937619Y-81076880D02*
X121937619Y-80981642D01*
X121937619Y-80981642D02*
X121985238Y-80838785D01*
X121985238Y-80838785D02*
X122032857Y-80791166D01*
X121937619Y-79886404D02*
X121937619Y-80362594D01*
X121937619Y-80362594D02*
X122413809Y-80410213D01*
X122413809Y-80410213D02*
X122366190Y-80362594D01*
X122366190Y-80362594D02*
X122318571Y-80267356D01*
X122318571Y-80267356D02*
X122318571Y-80029261D01*
X122318571Y-80029261D02*
X122366190Y-79934023D01*
X122366190Y-79934023D02*
X122413809Y-79886404D01*
X122413809Y-79886404D02*
X122509047Y-79838785D01*
X122509047Y-79838785D02*
X122747142Y-79838785D01*
X122747142Y-79838785D02*
X122842380Y-79886404D01*
X122842380Y-79886404D02*
X122890000Y-79934023D01*
X122890000Y-79934023D02*
X122937619Y-80029261D01*
X122937619Y-80029261D02*
X122937619Y-80267356D01*
X122937619Y-80267356D02*
X122890000Y-80362594D01*
X122890000Y-80362594D02*
X122842380Y-80410213D01*
X122842380Y-119542166D02*
X122890000Y-119589785D01*
X122890000Y-119589785D02*
X122937619Y-119732642D01*
X122937619Y-119732642D02*
X122937619Y-119827880D01*
X122937619Y-119827880D02*
X122890000Y-119970737D01*
X122890000Y-119970737D02*
X122794761Y-120065975D01*
X122794761Y-120065975D02*
X122699523Y-120113594D01*
X122699523Y-120113594D02*
X122509047Y-120161213D01*
X122509047Y-120161213D02*
X122366190Y-120161213D01*
X122366190Y-120161213D02*
X122175714Y-120113594D01*
X122175714Y-120113594D02*
X122080476Y-120065975D01*
X122080476Y-120065975D02*
X121985238Y-119970737D01*
X121985238Y-119970737D02*
X121937619Y-119827880D01*
X121937619Y-119827880D02*
X121937619Y-119732642D01*
X121937619Y-119732642D02*
X121985238Y-119589785D01*
X121985238Y-119589785D02*
X122032857Y-119542166D01*
X122270952Y-118685023D02*
X122937619Y-118685023D01*
X121890000Y-118923118D02*
X122604285Y-119161213D01*
X122604285Y-119161213D02*
X122604285Y-118542166D01*
X77892380Y-80791166D02*
X77940000Y-80838785D01*
X77940000Y-80838785D02*
X77987619Y-80981642D01*
X77987619Y-80981642D02*
X77987619Y-81076880D01*
X77987619Y-81076880D02*
X77940000Y-81219737D01*
X77940000Y-81219737D02*
X77844761Y-81314975D01*
X77844761Y-81314975D02*
X77749523Y-81362594D01*
X77749523Y-81362594D02*
X77559047Y-81410213D01*
X77559047Y-81410213D02*
X77416190Y-81410213D01*
X77416190Y-81410213D02*
X77225714Y-81362594D01*
X77225714Y-81362594D02*
X77130476Y-81314975D01*
X77130476Y-81314975D02*
X77035238Y-81219737D01*
X77035238Y-81219737D02*
X76987619Y-81076880D01*
X76987619Y-81076880D02*
X76987619Y-80981642D01*
X76987619Y-80981642D02*
X77035238Y-80838785D01*
X77035238Y-80838785D02*
X77082857Y-80791166D01*
X77987619Y-79838785D02*
X77987619Y-80410213D01*
X77987619Y-80124499D02*
X76987619Y-80124499D01*
X76987619Y-80124499D02*
X77130476Y-80219737D01*
X77130476Y-80219737D02*
X77225714Y-80314975D01*
X77225714Y-80314975D02*
X77273333Y-80410213D01*
X99833333Y-142217380D02*
X99785714Y-142265000D01*
X99785714Y-142265000D02*
X99642857Y-142312619D01*
X99642857Y-142312619D02*
X99547619Y-142312619D01*
X99547619Y-142312619D02*
X99404762Y-142265000D01*
X99404762Y-142265000D02*
X99309524Y-142169761D01*
X99309524Y-142169761D02*
X99261905Y-142074523D01*
X99261905Y-142074523D02*
X99214286Y-141884047D01*
X99214286Y-141884047D02*
X99214286Y-141741190D01*
X99214286Y-141741190D02*
X99261905Y-141550714D01*
X99261905Y-141550714D02*
X99309524Y-141455476D01*
X99309524Y-141455476D02*
X99404762Y-141360238D01*
X99404762Y-141360238D02*
X99547619Y-141312619D01*
X99547619Y-141312619D02*
X99642857Y-141312619D01*
X99642857Y-141312619D02*
X99785714Y-141360238D01*
X99785714Y-141360238D02*
X99833333Y-141407857D01*
X100166667Y-141312619D02*
X100785714Y-141312619D01*
X100785714Y-141312619D02*
X100452381Y-141693571D01*
X100452381Y-141693571D02*
X100595238Y-141693571D01*
X100595238Y-141693571D02*
X100690476Y-141741190D01*
X100690476Y-141741190D02*
X100738095Y-141788809D01*
X100738095Y-141788809D02*
X100785714Y-141884047D01*
X100785714Y-141884047D02*
X100785714Y-142122142D01*
X100785714Y-142122142D02*
X100738095Y-142217380D01*
X100738095Y-142217380D02*
X100690476Y-142265000D01*
X100690476Y-142265000D02*
X100595238Y-142312619D01*
X100595238Y-142312619D02*
X100309524Y-142312619D01*
X100309524Y-142312619D02*
X100214286Y-142265000D01*
X100214286Y-142265000D02*
X100166667Y-142217380D01*
X77892380Y-119542166D02*
X77940000Y-119589785D01*
X77940000Y-119589785D02*
X77987619Y-119732642D01*
X77987619Y-119732642D02*
X77987619Y-119827880D01*
X77987619Y-119827880D02*
X77940000Y-119970737D01*
X77940000Y-119970737D02*
X77844761Y-120065975D01*
X77844761Y-120065975D02*
X77749523Y-120113594D01*
X77749523Y-120113594D02*
X77559047Y-120161213D01*
X77559047Y-120161213D02*
X77416190Y-120161213D01*
X77416190Y-120161213D02*
X77225714Y-120113594D01*
X77225714Y-120113594D02*
X77130476Y-120065975D01*
X77130476Y-120065975D02*
X77035238Y-119970737D01*
X77035238Y-119970737D02*
X76987619Y-119827880D01*
X76987619Y-119827880D02*
X76987619Y-119732642D01*
X76987619Y-119732642D02*
X77035238Y-119589785D01*
X77035238Y-119589785D02*
X77082857Y-119542166D01*
X77082857Y-119161213D02*
X77035238Y-119113594D01*
X77035238Y-119113594D02*
X76987619Y-119018356D01*
X76987619Y-119018356D02*
X76987619Y-118780261D01*
X76987619Y-118780261D02*
X77035238Y-118685023D01*
X77035238Y-118685023D02*
X77082857Y-118637404D01*
X77082857Y-118637404D02*
X77178095Y-118589785D01*
X77178095Y-118589785D02*
X77273333Y-118589785D01*
X77273333Y-118589785D02*
X77416190Y-118637404D01*
X77416190Y-118637404D02*
X77987619Y-119208832D01*
X77987619Y-119208832D02*
X77987619Y-118589785D01*
D12*
X83875000Y-69627000D02*
G75*
G03*
X83875000Y-69627000I-250000J0D01*
G01*
X95253000Y-97000000D02*
G75*
G03*
X95253000Y-97000000I-250000J0D01*
G01*
X95253000Y-64250000D02*
G75*
G03*
X95253000Y-64250000I-250000J0D01*
G01*
X116625000Y-91622000D02*
G75*
G03*
X116625000Y-91622000I-250000J0D01*
G01*
X105247000Y-135750000D02*
G75*
G03*
X105247000Y-135750000I-250000J0D01*
G01*
X116625000Y-114378000D02*
G75*
G03*
X116625000Y-114378000I-250000J0D01*
G01*
X116625000Y-130373000D02*
G75*
G03*
X116625000Y-130373000I-250000J0D01*
G01*
X83875000Y-108378000D02*
G75*
G03*
X83875000Y-108378000I-250000J0D01*
G01*
X89253000Y-135750000D02*
G75*
G03*
X89253000Y-135750000I-250000J0D01*
G01*
X83875000Y-85622000D02*
G75*
G03*
X83875000Y-85622000I-250000J0D01*
G01*
X116625000Y-75627000D02*
G75*
G03*
X116625000Y-75627000I-250000J0D01*
G01*
X105247000Y-103000000D02*
G75*
G03*
X105247000Y-103000000I-250000J0D01*
G01*
X111247000Y-64250000D02*
G75*
G03*
X111247000Y-64250000I-250000J0D01*
G01*
X83875000Y-124373000D02*
G75*
G03*
X83875000Y-124373000I-250000J0D01*
G01*
%LPC*%
D13*
X120937500Y-80624500D03*
X117812500Y-80624500D03*
X120937500Y-119375500D03*
X117812500Y-119375500D03*
D14*
X79062500Y-80624500D03*
X82187500Y-80624500D03*
D15*
X100000000Y-140312500D03*
X100000000Y-137187500D03*
D14*
X79062500Y-119375500D03*
X82187500Y-119375500D03*
D16*
X78975000Y-75077000D03*
X82275000Y-75077000D03*
X82275000Y-70177000D03*
X78975000Y-70177000D03*
X90353000Y-102450000D03*
X93653000Y-102450000D03*
X93653000Y-97550000D03*
X90353000Y-97550000D03*
D17*
X89553000Y-59600000D03*
X89553000Y-62900000D03*
X94453000Y-62900000D03*
X94453000Y-59600000D03*
D16*
X121025000Y-86172000D03*
X117725000Y-86172000D03*
X117725000Y-91072000D03*
X121025000Y-91072000D03*
D17*
X110447000Y-140400000D03*
X110447000Y-137100000D03*
X105547000Y-137100000D03*
X105547000Y-140400000D03*
D16*
X121025000Y-108928000D03*
X117725000Y-108928000D03*
X117725000Y-113828000D03*
X121025000Y-113828000D03*
X121025000Y-124923000D03*
X117725000Y-124923000D03*
X117725000Y-129823000D03*
X121025000Y-129823000D03*
X78975000Y-113828000D03*
X82275000Y-113828000D03*
X82275000Y-108928000D03*
X78975000Y-108928000D03*
D17*
X94453000Y-140400000D03*
X94453000Y-137100000D03*
X89553000Y-137100000D03*
X89553000Y-140400000D03*
D16*
X78975000Y-91072000D03*
X82275000Y-91072000D03*
X82275000Y-86172000D03*
X78975000Y-86172000D03*
X121025000Y-70177000D03*
X117725000Y-70177000D03*
X117725000Y-75077000D03*
X121025000Y-75077000D03*
X109647000Y-97550000D03*
X106347000Y-97550000D03*
X106347000Y-102450000D03*
X109647000Y-102450000D03*
D17*
X105547000Y-59600000D03*
X105547000Y-62900000D03*
X110447000Y-62900000D03*
X110447000Y-59600000D03*
D16*
X78975000Y-129823000D03*
X82275000Y-129823000D03*
X82275000Y-124923000D03*
X78975000Y-124923000D03*
D18*
X96190000Y-61200000D03*
D19*
X98690000Y-61200000D03*
X101190000Y-61200000D03*
D18*
X103690000Y-61200000D03*
%LPD*%
M02*
