M48
; DRILL file {KiCad 7.0.2} date Wed Oct  9 22:41:25 2024
; FORMAT={3:3/ absolute / metric / keep zeros}
; #@! TF.CreationDate,2024-10-09T22:41:25+03:00
; #@! TF.GenerationSoftware,Kicad,Pcbnew,7.0.2
; #@! TF.FileFunction,MixedPlating,1,2
FMAT,2
METRIC
; #@! TA.AperFunction,Plated,PTH,ViaDrill
T1C0.700
; #@! TA.AperFunction,Plated,PTH,ComponentDrill
T2C0.800
; #@! TA.AperFunction,Plated,PTH,ComponentDrill
T3C0.900
; #@! TA.AperFunction,Plated,PTH,ComponentDrill
T4C1.000
; #@! TA.AperFunction,NonPlated,NPTH,ComponentDrill
T5C3.200
%
G90
G05
T1
X060000Y-094234
X062540Y-094234
X066904Y-094234
X075946Y-088138
X114808Y-089000
X184808Y-089000
X244808Y-089000
T2
X157100Y-092789
X160500Y-092789
T3
X040132Y-083566
X040132Y-086106
X040132Y-088646
X040132Y-091186
X040132Y-093726
X040132Y-096266
X040132Y-098806
X040132Y-101346
X040132Y-103886
X055372Y-083566
X055372Y-086106
X055372Y-088646
X055372Y-091186
X055372Y-093726
X055372Y-096266
X055372Y-098806
X055372Y-101346
X055372Y-103886
T4
X060000Y-089000
X062540Y-089000
X065080Y-089000
X067620Y-089000
X120000Y-089000
X122540Y-089000
X125080Y-089000
X127620Y-089000
X190000Y-089000
X192540Y-089000
X195080Y-089000
X197620Y-089000
X250000Y-089000
X252540Y-089000
X255080Y-089000
X257620Y-089000
T5
X093800Y-092789
X223800Y-092789
T0
M30
